STARTFONT 2.1
FONT -Monotype-Nimrod-Regular-I-Normal--50-360-100-100-P-334-iso8859-5
SIZE 36 100 100
FONTBOUNDINGBOX 74 61 -10 -13

STARTPROPERTIES 24
FOUNDRY "Monotype"
FAMILY_NAME "Nimrod"
WEIGHT_NAME "Regular"
SLANT "I"
SETWIDTH_NAME "Normal"
ADD_STYLE_NAME ""
PIXEL_SIZE 50
POINT_SIZE 360
RESOLUTION_X 100
RESOLUTION_Y 100
SPACING "P"
AVERAGE_WIDTH 334
CHARSET_REGISTRY "iso8859"
CHARSET_ENCODING "5"
FACE_NAME "Nimrod Inclined ISO Latin Cyrillic"
_DEC_DEVICE_FONTNAMES "PS=nimrod-in-latcyrillic"
COPYRIGHT "Copyright (c) 1993 Monotype Typography Ltd."
CAP_HEIGHT 47
X_HEIGHT 35
WEIGHT 10
QUAD_WIDTH 36
DEFAULT_CHAR 160
FONT_DESCENT 14
FONT_ASCENT 50
ENDPROPERTIES

CHARS 191

STARTCHAR space
ENCODING 32
SWIDTH 250 0
DWIDTH 13 0
BBX 0 0 0 0
BITMAP
ENDCHAR

STARTCHAR exclam
ENCODING 33
SWIDTH 354 0
DWIDTH 18 0
BBX 18 38 2 -1
BITMAP
001F00
001F80
003F80
003F00
003F00
003F00
003E00
007E00
007C00
007C00
007800
007800
007800
007000
007000
00E000
00E000
00E000
00C000
01C000
018000
018000
018000
010000
030000
030000
000000
000000
000000
000000
000000
1C0000
3E0000
7F0000
7F0000
7F0000
3E0000
1C0000
ENDCHAR

STARTCHAR quotedbl
ENCODING 34
SWIDTH 417 0
DWIDTH 21 0
BBX 18 14 6 20
BITMAP
0E0700
1F0F80
1F0F80
1E1F00
3E1F00
3C1F00
3C1E00
381E00
381C00
381C00
301800
303800
603000
603000
ENDCHAR

STARTCHAR numbersign
ENCODING 35
SWIDTH 667 0
DWIDTH 33 0
BBX 32 35 1 -1
BITMAP
001C0060
001C00E0
001800E0
001800E0
001800C0
003800C0
003801C0
003001C0
00300180
00300180
7FFFFFFC
7FFFFFFC
7FFFFFFC
00600300
00E00300
00E00300
00E00700
00C00700
00C00600
01C00600
01C00600
01800E00
7FFFFFFC
7FFFFFFC
7FFFFFFC
03800C00
03001C00
03001C00
03001800
07001800
07003800
06003800
06003800
0E003000
0E003000
ENDCHAR

STARTCHAR dollar
ENCODING 36
SWIDTH 500 0
DWIDTH 25 0
BBX 29 45 0 -7
BITMAP
00001800
00001800
00003800
0003FE00
000FFF80
003E33C0
007871E0
007070E0
00E060F0
00E061F0
00E0E1F0
01E0C3F0
01E0C3E0
01F1C1E0
00F9C000
00FD8000
007D8000
007F8000
003F8000
001FC000
000FE000
0007F000
0007F000
0007F800
000EFC00
000E7C00
000C3E00
180C3E00
3C1C1E00
7E1C1E00
7E181E00
7C381E00
7C383C00
78303C00
38307800
3C70F000
1F77E000
07FF8000
01FC0000
00E00000
00C00000
00C00000
00C00000
01800000
01800000
ENDCHAR

STARTCHAR percent
ENCODING 37
SWIDTH 1000 0
DWIDTH 50 0
BBX 38 37 9 -2
BITMAP
00780000C0
01FE0001C0
03C7000180
0787000300
0707000600
0F07000C00
0E07001800
1E0F003800
1E0F003000
3C0F006000
3C1E00C000
3C1E018000
3C1C030000
383C070000
3838060000
38780C0000
3CF0180000
1FE0300780
0780603FE0
0000E078F0
0000C0F070
000180F070
000301E070
000601E0F0
000C03C0F0
001C03C0F0
001803C1F0
00300781E0
00600781E0
00C00783C0
01800703C0
0380070780
0300070780
0600038F00
0C0003FE00
180000F000
3000000000
ENDCHAR

STARTCHAR ampersand
ENCODING 38
SWIDTH 854 0
DWIDTH 43 0
BBX 43 39 0 -1
BITMAP
00000FE00000
00001FF80000
00007C3C0000
0000F01E0000
0000F01E0000
0001E00E0000
0001E00E0000
0001E00E0000
0003E00E0000
0003E01E0000
0003E03C0000
0003E03C0000
0003E0F80000
0003E1E00000
0001F7C00000
0001FF000000
0003F8000000
000FF0000000
003EF80FFF80
00F8F81FFF80
03F0F801FC00
07C07C00F800
0F807C00F000
0F007E00E000
1F003E00C000
3F003E01C000
3E001F038000
3E001F030000
3E000F860000
3E000FCE0000
3F0007DC0200
3F0007F80300
3F8003F00700
1F8003F80E00
1FE007FC3C00
0FF01FFFF800
07FFFC7FF000
01FFF03FE000
003F800F8000
ENDCHAR

STARTCHAR quoteright
ENCODING 39
SWIDTH 281 0
DWIDTH 14 0
BBX 12 13 6 25
BITMAP
0380
07C0
0FE0
0FE0
0FE0
07E0
01C0
01C0
0180
0380
0F00
3C00
3800
ENDCHAR

STARTCHAR parenleft
ENCODING 40
SWIDTH 354 0
DWIDTH 18 0
BBX 23 47 1 -9
BITMAP
000030
0000E0
0001C0
000380
000700
000E00
003C00
003C00
007800
00F000
01E000
03E000
03C000
07C000
078000
0F8000
1F8000
1F0000
1F0000
3E0000
3E0000
3E0000
3E0000
7E0000
7C0000
7C0000
7C0000
7C0000
7C0000
7C0000
7C0000
7C0000
3C0000
3C0000
3C0000
3E0000
1E0000
1E0000
1E0000
0E0000
070000
070000
038000
038000
018000
00C000
00C000
ENDCHAR

STARTCHAR parenright
ENCODING 41
SWIDTH 354 0
DWIDTH 18 0
BBX 23 47 -5 -9
BITMAP
000600
000700
000380
000380
0001C0
0001C0
0001E0
0000E0
0000F0
0000F0
000078
000078
000078
00007C
00007C
00007C
00007C
00007C
00007C
00007C
00007C
00007C
00007C
0000FC
0000F8
0000F8
0000F8
0001F0
0001F0
0001F0
0003E0
0003E0
0007C0
0007C0
000F80
000F00
001F00
003E00
003C00
007800
00F000
01E000
03C000
078000
0E0000
1C0000
380000
ENDCHAR

STARTCHAR asterisk
ENCODING 42
SWIDTH 469 0
DWIDTH 23 0
BBX 23 20 5 18
BITMAP
001C00
003E00
003E00
383E00
7C3C00
7E3800
7F3800
3FB0F0
0FF3F8
00FFF8
00FFF8
03F0F0
1F9800
3F9C00
3F1E00
3E1E00
3E1F00
081F00
001F00
000E00
ENDCHAR

STARTCHAR plus
ENCODING 43
SWIDTH 667 0
DWIDTH 33 0
BBX 29 27 2 3
BITMAP
00070000
00070000
00070000
00070000
00070000
00070000
00070000
00070000
00070000
00070000
00070000
00070000
7FFFFFF0
7FFFFFF0
7FFFFFF0
00070000
00070000
00070000
00070000
00070000
00070000
00070000
00070000
00070000
00070000
00070000
00070000
ENDCHAR

STARTCHAR comma
ENCODING 44
SWIDTH 281 0
DWIDTH 14 0
BBX 12 13 -2 -7
BITMAP
0380
07C0
0FE0
0FE0
0FE0
07E0
01C0
01C0
0180
0300
0E00
3C00
3000
ENDCHAR

STARTCHAR minus
ENCODING 45
SWIDTH 667 0
DWIDTH 33 0
BBX 29 3 2 15
BITMAP
7FFFFFF0
7FFFFFF0
7FFFFFF0
ENDCHAR

STARTCHAR period
ENCODING 46
SWIDTH 281 0
DWIDTH 14 0
BBX 9 7 1 -1
BITMAP
1C00
3E00
7F00
7F00
7F00
3E00
1C00
ENDCHAR

STARTCHAR slash
ENCODING 47
SWIDTH 510 0
DWIDTH 26 0
BBX 26 42 0 -1
BITMAP
00000700
00000700
00000E00
00000E00
00000C00
00001C00
00001800
00003800
00003000
00007000
00006000
0000E000
0000C000
0001C000
00018000
00038000
00030000
00070000
00060000
000E0000
000C0000
001C0000
00180000
00380000
00300000
00700000
00600000
00E00000
00E00000
01C00000
01C00000
03800000
03800000
07000000
07000000
0E000000
0E000000
1C000000
1C000000
18000000
38000000
30000000
ENDCHAR

STARTCHAR zero
ENCODING 48
SWIDTH 500 0
DWIDTH 25 0
BBX 27 36 1 -1
BITMAP
0003F000
000FFC00
001F1E00
003C0F00
00780700
00F80780
01F00780
01F00780
03E00780
03E00780
07E00780
07C00F80
07C00F80
0F800F80
0F800F80
0F800F80
1F001F00
1F001F00
1F001F00
1F003F00
3E003E00
3E003E00
3E003E00
3E007C00
3E007C00
3E007C00
3C00F800
3C00F800
3C01F000
3C01F000
3C03E000
1E03C000
1E078000
0F1F0000
07FE0000
01F80000
ENDCHAR

STARTCHAR one
ENCODING 49
SWIDTH 500 0
DWIDTH 25 0
BBX 23 35 1 0
BITMAP
000018
000078
0003F8
007FF0
007FF0
0007F0
0003F0
0001E0
0003E0
0003E0
0003E0
0003C0
0007C0
0007C0
000780
000F80
000F80
000F80
000F00
001F00
001F00
001F00
001E00
003E00
003E00
003E00
003C00
007C00
007C00
007800
00F800
00F800
01FC00
3FFFE0
3FFFE0
ENDCHAR

STARTCHAR two
ENCODING 50
SWIDTH 500 0
DWIDTH 25 0
BBX 30 35 -2 0
BITMAP
0000F800
0007FF00
000FFF80
001C0FC0
003803E0
003803E0
007801F0
007C01F0
007E01F0
007E01F0
007E01F0
003E03F0
001C03E0
000007E0
00000FC0
00000F80
00001F80
00003F00
00007C00
0000F800
0003F000
0007C000
000F8000
001E0000
003C0000
00780180
00F00380
01C00300
03800700
07000700
0E001E00
1FFFFE00
1FFFFE00
3FFFFC00
3FFFFC00
ENDCHAR

STARTCHAR three
ENCODING 51
SWIDTH 500 0
DWIDTH 25 0
BBX 27 36 1 -1
BITMAP
0003E000
001FFC00
003FFE00
00781F00
00F00F80
00F00780
01F007C0
01F807C0
01F807C0
00F007C0
00600FC0
00000F80
00001F80
00003F00
00007E00
00E1FC00
00FFE000
00FFC000
0003F000
0000F800
00007C00
00003C00
00003E00
00003E00
18003E00
3E003E00
7E003E00
7E007E00
7E007C00
7C00FC00
7800F800
3801F800
3C03F000
1E0FE000
0FFF8000
03FE0000
ENDCHAR

STARTCHAR four
ENCODING 52
SWIDTH 500 0
DWIDTH 25 0
BBX 27 35 1 0
BITMAP
000003C0
00000780
00000F80
00001F80
00001F80
00003F00
00007F00
0000FF00
0001DF00
00039E00
00071E00
000E3E00
001C3E00
00383C00
00703C00
00E07C00
01C07800
03807800
0780F800
0700F800
0E00F000
1C00F000
3801F000
3FFFFF00
3FFFFF00
7FFFFE00
0003E000
0003E000
0003C000
0003C000
0007C000
0007C000
000FC000
00FFFC00
00FFFC00
ENDCHAR

STARTCHAR five
ENCODING 53
SWIDTH 500 0
DWIDTH 25 0
BBX 29 36 0 -1
BITMAP
00000060
001FFFE0
001FFFE0
001FFFE0
003FFFC0
00380000
00300000
00700000
00700000
00600000
00E00000
00E00000
00C7C000
01DFF000
01FFF800
01E07C00
03C03E00
00003E00
00001F00
00001F00
00001F00
00001F00
00001F00
00001F00
04001F00
1F003E00
1F003E00
3F003E00
3F007C00
3E007C00
3C00F800
1C01F000
1E03E000
0F0FC000
07FF8000
01FC0000
ENDCHAR

STARTCHAR six
ENCODING 54
SWIDTH 500 0
DWIDTH 25 0
BBX 28 36 2 -1
BITMAP
0000FE00
0007FF00
000F8F80
001E07C0
003C0FC0
00780FC0
00F80FC0
01F00780
01E00200
03E00000
03C00000
07C00000
07C00000
0F800000
0F87C000
0FBFF000
1FFFF800
1FE0FC00
1FC07C00
1F807E00
3F003E00
3F003E00
3E003E00
3E003E00
3E003E00
3E003E00
3C007E00
3C007C00
3C007C00
3C00F800
1E00F800
1E01F000
0F03E000
0F87C000
03FF8000
00FE0000
ENDCHAR

STARTCHAR seven
ENCODING 55
SWIDTH 500 0
DWIDTH 25 0
BBX 25 35 5 -1
BITMAP
07FFFF00
07FFFF00
0FFFFE00
0FFFFE00
0F801C00
1E003800
1C003000
18007000
1800E000
3801C000
3001C000
00038000
00070000
000F0000
000E0000
001E0000
003C0000
003C0000
00780000
00780000
00F00000
01F00000
01F00000
03E00000
03E00000
07C00000
07C00000
0FC00000
0FC00000
1F800000
1F800000
1F800000
1F800000
1F000000
0F000000
ENDCHAR

STARTCHAR eight
ENCODING 56
SWIDTH 500 0
DWIDTH 25 0
BBX 27 36 1 -1
BITMAP
0003F800
001FFE00
003E1F00
00780F80
00F80780
01F007C0
01F007C0
03E007C0
03E007C0
03E007C0
03E00780
01E00F80
01E01F00
00F01E00
00787C00
001FF000
00FFE000
03E0F800
07C07C00
0F803C00
1F003E00
1F003E00
3E003E00
3E003E00
3E003E00
7E003E00
7C007C00
7C007C00
7C007C00
7C00F800
3C00F800
3E01F000
1E03E000
1F87C000
07FF8000
01FC0000
ENDCHAR

STARTCHAR nine
ENCODING 57
SWIDTH 500 0
DWIDTH 25 0
BBX 27 36 1 -1
BITMAP
000FF000
003FF800
007C3E00
00F81E00
01F00F00
03E00700
03E00780
07C00780
07C00780
07C00780
0FC00780
0F800F80
0F800F80
0F800F80
0F800F80
0F801F80
07803F00
07C03F00
03E0FF00
03FFDF00
00FF3E00
003C3E00
00003E00
00007C00
00007C00
0000F800
0000F800
1800F000
3E01F000
7E03E000
7E03C000
7E078000
7C1F0000
3E3E0000
1FF80000
0FE00000
ENDCHAR

STARTCHAR colon
ENCODING 58
SWIDTH 281 0
DWIDTH 14 0
BBX 15 29 0 -1
BITMAP
0070
00F8
01FC
01FC
01FC
00F8
0070
0000
0000
0000
0000
0000
0000
0000
0000
0000
0000
0000
0000
0000
0000
0000
1C00
3E00
7F00
7F00
7F00
3E00
1C00
ENDCHAR

STARTCHAR semicolon
ENCODING 59
SWIDTH 281 0
DWIDTH 14 0
BBX 18 35 -4 -7
BITMAP
000E00
001F00
003F80
003F80
003F80
001F00
000E00
000000
000000
000000
000000
000000
000000
000000
000000
000000
000000
000000
000000
000000
000000
000000
07C000
0FE000
0FE000
0FE000
0FE000
03E000
00C000
01C000
038000
070000
1E0000
380000
200000
ENDCHAR

STARTCHAR less
ENCODING 60
SWIDTH 667 0
DWIDTH 33 0
BBX 29 24 2 4
BITMAP
00000030
000001F0
000007F0
00001F80
0000FE00
0003F000
000FC000
007F0000
01F80000
0FE00000
3F000000
3C000000
3E000000
1F800000
07E00000
01FC0000
003F0000
000FE000
0003F800
00007E00
00001FC0
000007F0
000000F0
00000030
ENDCHAR

STARTCHAR equal
ENCODING 61
SWIDTH 667 0
DWIDTH 33 0
BBX 29 14 2 9
BITMAP
3FFFFFF0
3FFFFFF0
3FFFFFF0
00000000
00000000
00000000
00000000
00000000
00000000
00000000
00000000
3FFFFFF0
3FFFFFF0
3FFFFFF0
ENDCHAR

STARTCHAR greater
ENCODING 62
SWIDTH 667 0
DWIDTH 33 0
BBX 29 24 2 4
BITMAP
30000000
3C000000
3F000000
0FE00000
03F80000
007E0000
001FC000
0003F000
0000FE00
00003F80
000007E0
000001F0
000001F0
000007E0
00003F80
0000FC00
0007F000
001F8000
00FE0000
03F80000
0FC00000
3F000000
3C000000
20000000
ENDCHAR

STARTCHAR question
ENCODING 63
SWIDTH 427 0
DWIDTH 21 0
BBX 23 39 2 -1
BITMAP
003F80
01FFE0
03E1F0
07C0F8
07C07C
0FC07C
0FC07C
0FC07C
07C07C
0780FC
0000F8
0001F8
0003F0
0007E0
001FC0
003F80
007E00
007800
00F000
01E000
01C000
018000
038000
030000
030000
060000
060000
000000
000000
000000
000000
000000
1C0000
3E0000
7F0000
7F0000
7F0000
3E0000
1C0000
ENDCHAR

STARTCHAR at
ENCODING 64
SWIDTH 917 0
DWIDTH 46 0
BBX 46 46 0 -12
BITMAP
00000FFE0000
00007C03C000
0001C0007000
000700001800
000C00000C00
003800000600
007000000300
00E000000100
01C000000180
018000000080
0300000000C0
070001F1C040
0600071BC040
0E000E0BC060
0C001C078060
1C0038078060
180070078060
1800F0070060
3801E0070060
3801C00F0060
3803C00F0040
3003800E0040
3007801E00C0
3007801E00C0
3007003C0080
300F003C0180
300F007C0100
300F00FC0300
380F01B80600
180F83380C00
180F86381818
1807FC3C3010
0C07F83FE030
0C01E00F0020
060000000060
0600000000C0
0300000000C0
018000000180
01C000000300
00E000000600
007000000C00
001C00003800
000E0000E000
0003C007C000
0000FFFE0000
00000FE00000
ENDCHAR

STARTCHAR A
ENCODING 65
SWIDTH 771 0
DWIDTH 39 0
BBX 42 38 -4 0
BITMAP
0000000E0000
0000000E0000
0000001E0000
0000003E0000
0000003F0000
0000007F0000
000000FF0000
000000FF0000
000001DF0000
0000039F0000
0000039F8000
0000070F8000
0000060F8000
00000E0F8000
00001C0F8000
00001C0F8000
0000380FC000
00007007C000
00007007C000
0000E007C000
0001C007C000
0001C007C000
00038007C000
0003FFFFE000
0007FFFFE000
000FFFFFE000
000E0003E000
001C0003E000
00380003E000
00380003F000
00700001F000
00700001F000
00E00001F000
01E00001F000
03E00001F800
0FF80003FC00
3FFE003FFF00
3FFE003FFF00
ENDCHAR

STARTCHAR B
ENCODING 66
SWIDTH 740 0
DWIDTH 37 0
BBX 41 37 -2 0
BITMAP
003FFFFF8000
003FFFFFF000
0003F807F800
0001F001FC00
0003F000FC00
0003F0007E00
0003E0007E00
0003E0007E00
0007E0007E00
0007E0007E00
0007C0007E00
0007C000FC00
000FC000FC00
000F8001F800
000F8003F000
001F8007E000
001F803F8000
001FFFFC0000
001FFFFE0000
003F001F8000
003F0007C000
003E0003E000
003E0003F000
007E0001F800
007E0001F800
007C0001F800
007C0001F800
00FC0001F800
00FC0001F800
00F80003F000
01F80003F000
01F80007E000
01F0000FE000
01F0001FC000
03F800FF0000
3FFFFFFE0000
3FFFFFF00000
ENDCHAR

STARTCHAR C
ENCODING 67
SWIDTH 708 0
DWIDTH 35 0
BBX 37 39 3 -1
BITMAP
00003FE000
0001FFFC00
0007F03F00
001FC01F80
003F000FC0
007E0007E0
00FC0003E0
01F80003E0
03F00003C0
07E00001C0
07E00001C0
0FC00001C0
0FC00001C0
1FC0000180
1F80000000
1F80000000
3F00000000
3F00000000
3F00000000
3F00000000
7E00000000
7E00000000
7E00000000
7E00000000
7E00000000
7E00000000
7E00000000
7E00000600
3E00000E00
3F00000C00
3F00001C00
1F80003800
1F80007000
0FC000F000
0FE003E000
07F80F8000
01FFFF0000
00FFFC0000
001FE00000
ENDCHAR

STARTCHAR D
ENCODING 68
SWIDTH 792 0
DWIDTH 40 0
BBX 43 37 -2 0
BITMAP
003FFFFF0000
003FFFFFE000
0003F803F000
0001F800FC00
0001F0003C00
0001F0003E00
0003F0001F00
0003E0001F00
0003E0000F80
0007E0000F80
0007E0000F80
0007C0000FC0
0007C0000FC0
000FC0000FC0
000FC0000FC0
000F80000FC0
000F80000FC0
001F80000FC0
001F80001FC0
001F00001F80
001F00001F80
003F00001F80
003E00003F80
003E00003F00
007E00007F00
007E00007E00
007C00007E00
007C0000FC00
00FC0001FC00
00FC0001F800
00F80003F000
00F80007E000
01F8000FC000
01F8003F8000
03F801FE0000
3FFFFFF80000
3FFFFFC00000
ENDCHAR

STARTCHAR E
ENCODING 69
SWIDTH 708 0
DWIDTH 35 0
BBX 41 37 -2 0
BITMAP
003FFFFFFE00
003FFFFFFE00
0003F801FE00
0003F0007E00
0003F0003C00
0003F0003C00
0003E0003C00
0003E0003C00
0007E0003800
0007C0003800
0007C0003800
0007C0383800
000FC0300000
000F80700000
000F80700000
001F81F00000
001F87E00000
001FFFE00000
001FFFE00000
003F0FC00000
003F07C00000
003E03C00000
003E03C00000
007E01800000
007C03803000
007C03807000
007C03806000
00FC0000E000
00F80000E000
00F80001C000
01F80003C000
01F80007C000
01F0000F8000
01F0003F8000
03F801FF8000
3FFFFFFF8000
3FFFFFFF0000
ENDCHAR

STARTCHAR F
ENCODING 70
SWIDTH 698 0
DWIDTH 35 0
BBX 41 37 -2 0
BITMAP
003FFFFFFF00
003FFFFFFE00
0003F801FE00
0001F0007E00
0003F0003E00
0003F0001E00
0003E0001E00
0003E0001C00
0007E0001C00
0007E0001C00
0007C00C1C00
0007C01C1C00
000FC0180000
000F80180000
000F80380000
000F80780000
001F83F00000
001FFFF00000
001FFFF00000
003F07F00000
003F01E00000
003E01E00000
003E00E00000
007E00E00000
007E00C00000
007C00C00000
007C01C00000
00FC00000000
00F800000000
00F800000000
00F800000000
01F800000000
01F000000000
01F000000000
03F800000000
3FFFE0000000
3FFFE0000000
ENDCHAR

STARTCHAR G
ENCODING 71
SWIDTH 802 0
DWIDTH 40 0
BBX 39 39 3 -1
BITMAP
00001FF800
0001FFFE00
0007F03F80
000FC00FE0
003F0007F0
007E0003F0
00FC0001F0
01F80001F0
01F00000F0
03F00000E0
07E00000E0
0FE00000E0
0FC00000E0
1FC00000E0
1F80000000
1F80000000
3F80000000
3F00000000
3F00000000
3F00000000
7F00000000
7E0001FFF8
7E0001FFF8
7E00003FC0
7E00001F80
7E00001F00
7E00001F00
7E00003F00
3E00003F00
3E00003E00
3F00003E00
1F00007E00
1F80007E00
0F80007C00
0FC000FC00
07E003F800
01F81FE000
00FFFF8000
001FF80000
ENDCHAR

STARTCHAR H
ENCODING 72
SWIDTH 812 0
DWIDTH 41 0
BBX 49 37 -2 0
BITMAP
003FFFC1FFFE00
003FFF81FFFE00
0003F8000FE000
0001F0000FC000
0003F0000FC000
0003F0000F8000
0003E0000F8000
0003E0001F8000
0007E0001F0000
0007C0001F0000
0007C0003F0000
0007C0003F0000
000FC0003E0000
000F80003E0000
000F80007E0000
001F80007E0000
001FFFFFFC0000
001FFFFFFC0000
001FFFFFFC0000
003F0000FC0000
003E0000F80000
003E0000F80000
003E0001F80000
007E0001F80000
007C0001F00000
007C0001F00000
007C0003F00000
00FC0003E00000
00F80003E00000
00F80007E00000
00F80007E00000
01F80007C00000
01F00007C00000
01F0000FC00000
03F8001FE00000
3FFFC1FFFC0000
3FFF81FFFC0000
ENDCHAR

STARTCHAR I
ENCODING 73
SWIDTH 417 0
DWIDTH 21 0
BBX 29 37 -2 0
BITMAP
003FFFE0
003FFFE0
0001FC00
0001F800
0001F800
0001F000
0001F000
0001F000
0003F000
0003E000
0003E000
0007E000
0007E000
0007C000
0007C000
000FC000
000FC000
000F8000
000F8000
001F8000
001F0000
001F0000
001F0000
003F0000
003E0000
003E0000
007E0000
007E0000
007C0000
007C0000
00FC0000
00FC0000
00F80000
00F80000
01FC0000
3FFFE000
3FFFC000
ENDCHAR

STARTCHAR J
ENCODING 74
SWIDTH 604 0
DWIDTH 30 0
BBX 38 38 -1 -1
BITMAP
00001FFFF8
00001FFFF0
0000007F00
0000007E00
0000007E00
0000007C00
0000007C00
000000FC00
000000FC00
000000F800
000000F800
000001F800
000001F800
000001F000
000001F000
000003F000
000003F000
000003E000
000007E000
000007E000
000007C000
000007C000
00000FC000
00000FC000
0F800F8000
1FC00F8000
1FC01F8000
3FC01F8000
3FC01F0000
3F803F0000
3E003F0000
3C003E0000
3C007E0000
1C00FC0000
1E01F80000
0F87F00000
07FFE00000
01FF000000
ENDCHAR

STARTCHAR K
ENCODING 75
SWIDTH 760 0
DWIDTH 38 0
BBX 46 37 -2 0
BITMAP
003FFFC3FFF8
003FFF87FFF0
0003F800FF80
0003F0007E00
0003F0007C00
0003F000F000
0003E001E000
0003E003C000
0007E0078000
0007C00E0000
0007C03C0000
0007C0780000
000FC0F00000
000F81E00000
000F83800000
001F8FC00000
001F9FC00000
001F3FC00000
001F7FE00000
003FE3E00000
003FC3F00000
003F81F00000
003F01F80000
007E00F80000
007C00F80000
007C00FC0000
007C007C0000
00FC007E0000
00F8003E0000
00F8003E0000
01F8003F0000
01F8001F0000
01F0001F8000
01F0001FC000
03F8001FE000
3FFFC3FFFC00
3FFF83FFFC00
ENDCHAR

STARTCHAR L
ENCODING 76
SWIDTH 667 0
DWIDTH 33 0
BBX 36 37 -2 0
BITMAP
003FFFE000
007FFFE000
0003F80000
0001F00000
0001F00000
0003F00000
0003E00000
0003E00000
0007E00000
0007E00000
0007C00000
0007C00000
000FC00000
000FC00000
000F800000
000F800000
001F800000
001F800000
001F000000
001F000000
003F000000
003E000000
003E000000
007E000000
007E0000C0
007C0000C0
007C0001C0
00FC0001C0
00FC000380
00F8000780
00F8000780
01F8000F00
01F8003F00
01F0007F00
03F803FF00
3FFFFFFE00
3FFFFFFE00
ENDCHAR

STARTCHAR M
ENCODING 77
SWIDTH 979 0
DWIDTH 49 0
BBX 57 37 -2 0
BITMAP
003FFE00001FFE00
007FFE00003FFE00
0003FE00003FE000
0001FE000077C000
0001BE0000EFC000
0003BE0000EF8000
00039F0001CF8000
00039F00018F8000
00031F00039F8000
00071F00071F0000
00071F00071F0000
00061F000E3F0000
00061F001C3F0000
000E1F001C3E0000
000E1F00383E0000
000C1F00387E0000
000C1F80707E0000
001C0F80E07C0000
001C0F80E07C0000
00180F81C0FC0000
00380F81C0F80000
00380F8380F80000
00380F8700F80000
00300F8701F80000
00700F8E01F00000
00700F8C01F00000
00600F9C03F00000
00600FF803F00000
00E007F803E00000
00E007F003E00000
00C007E007E00000
01C007E007E00000
01E007C007C00000
03E007C007C00000
0FF807800FE00000
3FFF0700FFFE0000
3FFE0700FFFE0000
ENDCHAR

STARTCHAR N
ENCODING 78
SWIDTH 823 0
DWIDTH 41 0
BBX 50 38 -2 -1
BITMAP
003FF8003FFF00
003FF8003FFF00
0003FC0007F800
0001FC0001E000
0001FE0001E000
0001BE0001C000
0003BF0001C000
00039F0001C000
00031F00018000
00031F80038000
00070F80038000
00070FC0030000
000607C0030000
000607E0070000
000E03E0070000
000C03E0060000
000C03F0060000
001C01F00E0000
001C01F80E0000
001800F80C0000
001800FC0C0000
0038007C1C0000
0038007E180000
0030007E180000
0030003E180000
0070003F380000
0070001F300000
0060001FB00000
0060000FB00000
00E0000FF00000
00E00007E00000
01E00007E00000
01E00007E00000
03E00003E00000
0FF80003C00000
3FFF0001C00000
3FFF0001C00000
00000000800000
ENDCHAR

STARTCHAR O
ENCODING 79
SWIDTH 792 0
DWIDTH 40 0
BBX 38 39 3 -1
BITMAP
00003FE000
0001FFFC00
0007E03E00
000F800F00
001F000780
007E0003C0
00FC0003E0
01F80001E0
03F00001F0
03F00001F0
07E00001F8
07E00001F8
0FC00001F8
0FC00001F8
1F800001F8
1F800001F8
3F800001F8
3F000001F8
3F000001F8
3F000003F0
3F000003F0
7E000003F0
7E000007F0
7E000007E0
7E000007E0
7E00000FE0
7E00000FC0
7E00000FC0
3E00001F80
3E00001F00
3E00003F00
1F00007E00
1F0000FC00
0F8001F800
078003F000
03E007C000
01F83F8000
00FFFE0000
001FF00000
ENDCHAR

STARTCHAR P
ENCODING 80
SWIDTH 698 0
DWIDTH 35 0
BBX 40 37 -2 0
BITMAP
003FFFFF00
003FFFFFC0
0003F807F0
0001F001F8
0001F000FC
0003F0007C
0003E0007E
0003E0007E
0007E0007E
0007E0007E
0007C0007E
0007C0007E
000FC000FC
000FC000FC
000F8001F8
000F8003F8
001F8007F0
001F001FE0
001FFFFF80
001FFFFC00
003F000000
003E000000
003E000000
007E000000
007E000000
007C000000
007C000000
00FC000000
00FC000000
00F8000000
00F8000000
01F8000000
01F8000000
01F0000000
03F8000000
3FFFC00000
3FFFC00000
ENDCHAR

STARTCHAR Q
ENCODING 81
SWIDTH 792 0
DWIDTH 40 0
BBX 40 45 2 -7
BITMAP
00001FF000
0000FFFE00
0003F83F00
0007C00F80
001F8003C0
003E0003E0
007E0001F0
00FC0001F0
01F80000F8
01F80000F8
03F00000F8
07F00000FC
07E00000FC
0FE00000FC
0FC00000FC
0FC00000FC
1FC00000FC
1F800000FC
1F800000FC
1F800001FC
3F800001F8
3F000001F8
3F000001F8
3F07E003F8
3F1FF803F0
3F3FFC07F0
3F707E07E0
3FE03E07E0
3FC01F0FC0
1F801F0FC0
1F800F1F80
1F800FBF00
0F800FBE00
0FC007FC00
07C007F800
03E007E000
01F81FE000
007FFFF000
000FF9F000
000001F800
000000FC00
0000007F00
0000003FFC
0000000FFC
00000001F8
ENDCHAR

STARTCHAR R
ENCODING 82
SWIDTH 760 0
DWIDTH 38 0
BBX 39 37 -2 0
BITMAP
003FFFFF00
007FFFFFC0
0003F807F0
0003F001F8
0003E000F8
0003E000FC
0007E000FC
0007E000FC
0007C000FC
0007C000FC
000FC000FC
000FC001F8
000F8001F8
000F8003F0
001F8007F0
001F000FE0
001F007F80
001FFFFE00
003FFFE000
003E03F000
003E01F800
003E00F800
007E007C00
007C007C00
007C007C00
00FC007E00
00FC003E00
00F8003E00
00F8003F00
01F8001F00
01F8001F00
01F0001F80
01F0001F80
03F0000F80
07F8000FE0
3FFFC00FF8
7FFF800FF8
ENDCHAR

STARTCHAR S
ENCODING 83
SWIDTH 646 0
DWIDTH 32 0
BBX 35 39 0 -1
BITMAP
0000FFC000
0003FFFC00
000FC0FF00
001F003F80
003E001F80
007C000F80
007C000F80
00F8000700
00F8000700
00F8000700
00FC000700
00FC000600
00FE000600
00FF000000
007F800000
003FE00000
003FF80000
001FFE0000
0007FF8000
0003FFC000
0000FFF000
00003FF800
00000FF800
000003FC00
000001FC00
060000FE00
0E00007E00
0E00007E00
0E00007E00
0E00007E00
1E00007C00
1E00007C00
1E0000FC00
1F0000F800
3F8001F000
3FC007E000
3FF83FC000
0FFFFF0000
007FF80000
ENDCHAR

STARTCHAR T
ENCODING 84
SWIDTH 750 0
DWIDTH 38 0
BBX 39 37 3 0
BITMAP
01FFFFFFF8
03FFFFFFF8
03FC3F83F8
07F03F01F8
07C03F00F0
07803E0070
0F003E0070
0E007E0070
0E007C0070
1C007C0060
1C007C0060
1800FC0060
3800F800E0
0000F80000
0001F80000
0001F80000
0001F00000
0001F00000
0003F00000
0003F00000
0003E00000
0003E00000
0007E00000
0007E00000
0007C00000
0007C00000
000FC00000
000F800000
000F800000
001F800000
001F800000
001F000000
001F000000
003F000000
003F800000
0FFFFC0000
0FFFFC0000
ENDCHAR

STARTCHAR U
ENCODING 85
SWIDTH 760 0
DWIDTH 38 0
BBX 40 38 4 -1
BITMAP
1FFFE07FFE
1FFFE0FFFE
01FC000FF0
00F80007C0
00F80003C0
01F8000380
01F8000380
01F0000380
01F0000300
03F0000700
03E0000700
03E0000600
03E0000600
07E0000E00
07C0000E00
07C0000C00
07C0000C00
0FC0001C00
0F80001C00
0F80001800
1F80003800
1F80003800
1F00003000
1F00003000
1F00007000
3F00007000
3E00006000
3E0000E000
3E0000E000
3E0000C000
3E0001C000
3F00038000
1F00078000
1F800F0000
0FE03E0000
07FFFC0000
01FFF00000
003F800000
ENDCHAR

STARTCHAR V
ENCODING 86
SWIDTH 740 0
DWIDTH 37 0
BBX 41 38 4 -1
BITMAP
3FFF003FFE00
3FFF003FFE00
07F0000FF800
03F00003E000
03F00003C000
01F000038000
01F000070000
01F000070000
01F0000E0000
01F0000C0000
01F0001C0000
01F000380000
00F800380000
00F800700000
00F800700000
00F800E00000
00F801C00000
00F801C00000
00F803800000
00FC03800000
007C07000000
007C0E000000
007C0E000000
007C1C000000
007C1C000000
007C38000000
007E30000000
003E70000000
003EE0000000
003EE0000000
003FC0000000
003F80000000
003F80000000
003F00000000
003F00000000
001E00000000
001C00000000
001C00000000
ENDCHAR

STARTCHAR W
ENCODING 87
SWIDTH 979 0
DWIDTH 49 0
BBX 52 38 4 -1
BITMAP
3FFC3FFF81FFC0
7FFC3FFF81FFC0
0FE003F8007F00
07C001F0003C00
07C001F0003800
07C001F0003800
07C001F0007000
07C001F0006000
03C003F000E000
03C003F000C000
03C007F001C000
03C007F0018000
03E00EF0038000
03E00EF0030000
03E01CF0070000
03E01CF8060000
03E038F80E0000
03E038F81C0000
03E070F81C0000
03E070F8380000
03E0E0F8380000
03E0E0F8700000
01E1C0F8700000
01E180F8E00000
01E380F8E00000
01E300F9C00000
01F700F9C00000
01F6007B800000
01FE007B800000
01FC007F000000
01FC007E000000
01F8007E000000
01F8007C000000
01F0007C000000
01F00078000000
01E00078000000
01E00070000000
00C00070000000
ENDCHAR

STARTCHAR X
ENCODING 88
SWIDTH 750 0
DWIDTH 38 0
BBX 48 37 -4 0
BITMAP
001FFFC07FFE
003FFFC0FFFC
0003FC001FF0
0001F8000FC0
0000FC000F00
0000FC001E00
00007E001C00
00007E003800
00003E007000
00003F00E000
00001F01C000
00001F838000
00000F8F0000
00000FDE0000
00000FFC0000
000007F80000
000007F00000
000003F00000
000003F00000
000007F00000
00000FF80000
00001EF80000
00003CFC0000
0000787C0000
0000F07E0000
0001E03E0000
0003C03F0000
0007801F0000
000F001F8000
001E001F8000
003C000FC000
0078000FC000
00F80007E000
01F80007E000
07FC000FF000
3FFF80FFFE00
3FFF80FFFE00
ENDCHAR

STARTCHAR Y
ENCODING 89
SWIDTH 708 0
DWIDTH 35 0
BBX 39 37 4 0
BITMAP
3FFF00FFFC
3FFF00FFF8
07F0001FE0
03E0000F80
03F0000F00
01F0000F00
01F8001E00
00F8001C00
00FC003800
00FC007000
007C00E000
007E01C000
003E03C000
003F078000
001F070000
001F8E0000
000F9C0000
000FF80000
000FF80000
0007F00000
0007E00000
0007E00000
0007C00000
0007C00000
000FC00000
000FC00000
000F800000
000F800000
001F800000
001F800000
001F000000
003F000000
003F000000
003F000000
007F000000
0FFFF80000
0FFFF80000
ENDCHAR

STARTCHAR Z
ENCODING 90
SWIDTH 687 0
DWIDTH 34 0
BBX 39 37 0 0
BITMAP
000FFFFFF8
001FFFFFF8
001FF003F0
001F8007E0
003E000FC0
003C001FC0
003C003F80
0078003F00
0070007E00
007000FC00
00E001F800
00C003F000
000007E000
00000FE000
00000FC000
00001F8000
00003F0000
00007E0000
0000FC0000
0001F80000
0003F80000
0003F00000
0007E00000
000FC00000
001F800380
003F000300
007E000700
00FE000700
00FC000E00
01F8001E00
03F0003E00
07E0007E00
0FC000FC00
1F8003FC00
3F001FFC00
3FFFFFF800
7FFFFFF800
ENDCHAR

STARTCHAR bracketleft
ENCODING 91
SWIDTH 344 0
DWIDTH 17 0
BBX 25 45 -2 -8
BITMAP
0003FF00
0007FE00
0007C000
00078000
000F8000
000F8000
000F8000
000F0000
001F0000
001F0000
001F0000
001E0000
003E0000
003E0000
003C0000
003C0000
007C0000
007C0000
00780000
00F80000
00F80000
00F80000
00F00000
01F00000
01F00000
01F00000
01E00000
03E00000
03E00000
03C00000
03C00000
07C00000
07C00000
07800000
0F800000
0F800000
0F800000
0F000000
1F000000
1F000000
1F000000
1E000000
3E000000
3FF00000
3FF00000
ENDCHAR

STARTCHAR backslash
ENCODING 92
SWIDTH 510 0
DWIDTH 26 0
BBX 26 42 0 -1
BITMAP
70000000
38000000
38000000
1C000000
1C000000
0E000000
0E000000
07000000
07000000
03800000
03800000
01800000
01C00000
00C00000
00E00000
00600000
00700000
00300000
00380000
00180000
001C0000
000C0000
000E0000
00060000
00070000
00030000
00038000
00018000
0001C000
0000C000
0000E000
00006000
00007000
00007000
00003800
00003800
00001C00
00001C00
00000E00
00000E00
00000700
00000700
ENDCHAR

STARTCHAR bracketright
ENCODING 93
SWIDTH 344 0
DWIDTH 17 0
BBX 25 45 -5 -8
BITMAP
0007FE00
0007FE00
00003E00
00003C00
00003C00
00007C00
00007C00
00007800
0000F800
0000F800
0000F800
0000F000
0001F000
0001F000
0001F000
0001E000
0003E000
0003E000
0003C000
0003C000
0007C000
0007C000
00078000
000F8000
000F8000
000F8000
000F0000
001F0000
001F0000
001F0000
001E0000
003E0000
003E0000
003C0000
003C0000
007C0000
007C0000
00780000
00F80000
00F80000
00F80000
00F00000
01F00000
3FF00000
7FF00000
ENDCHAR

STARTCHAR asciicircum
ENCODING 94
SWIDTH 427 0
DWIDTH 21 0
BBX 25 18 0 16
BITMAP
00080000
001C0000
001C0000
00360000
00760000
00630000
00C38000
00C18000
0181C000
0380C000
03006000
06007000
06003000
0C003800
1C001800
18000C00
38000E00
30000600
ENDCHAR

STARTCHAR underscore
ENCODING 95
SWIDTH 500 0
DWIDTH 25 0
BBX 29 2 -2 -11
BITMAP
3FFFFFE0
3FFFFFE0
ENDCHAR

STARTCHAR quoteleft
ENCODING 96
SWIDTH 281 0
DWIDTH 14 0
BBX 12 13 6 25
BITMAP
0040
01C0
0780
0E00
1C00
3800
3800
7E00
7F00
7F00
7F00
3E00
1E00
ENDCHAR

STARTCHAR a
ENCODING 97
SWIDTH 604 0
DWIDTH 30 0
BBX 30 29 0 -1
BITMAP
000F8000
003FC3E0
007FE3E0
01FC73C0
01F03FC0
03E01FC0
07C00FC0
0FC00F80
0F800F80
1F800F80
1F000F80
1F000F00
3F001F00
3E001F00
3E001E00
3E003E00
7C003E00
7C003E00
7C003C00
7C007C00
7C007C38
7C00FC30
7C01F870
3C03F8E0
3E07F8C0
3F1EFB80
1FFCFF00
0FF07E00
03C03C00
ENDCHAR

STARTCHAR b
ENCODING 98
SWIDTH 604 0
DWIDTH 30 0
BBX 29 40 1 -1
BITMAP
000F8000
01FF8000
01FF0000
001F0000
001F0000
001E0000
003E0000
003E0000
003E0000
003C0000
007C0000
007C3E00
0078FF80
00F9FFC0
00FBC7E0
00FF03E0
00FC01E0
01F801F0
01F001F0
01E001F0
03E001F0
03E001F0
03E001F0
03C001F0
07C003F0
07C003E0
07C003E0
0F8003E0
0F8007C0
0F8007C0
0F000F80
1F000F80
1F001F00
1F001F00
1F003E00
3F807C00
3FC0F800
3BE1F000
71FFC000
007F0000
ENDCHAR

STARTCHAR c
ENCODING 99
SWIDTH 448 0
DWIDTH 22 0
BBX 26 29 -1 -1
BITMAP
0007F000
001FFC00
003E3E00
00F81F00
01F01F00
01E01F00
03E01F00
07C01F00
07C00600
0F800000
0F800000
1F000000
1F000000
1F000000
3F000000
3F000000
3E000000
3E000000
3E000000
3E000000
3E000000
3E000000
3F001C00
1F007800
1F80F000
0FC3E000
0FFF8000
07FF0000
01F80000
ENDCHAR

STARTCHAR d
ENCODING 100
SWIDTH 604 0
DWIDTH 30 0
BBX 32 40 0 -1
BITMAP
0000007C
000007FC
000007FC
000000FC
00000078
000000F8
000000F8
000000F0
000001F0
000001F0
000001F0
000F81E0
003FC3E0
00FFE3E0
01FC73E0
01F03FC0
03E01FC0
07C01FC0
07C00F80
0F800F80
1F800F80
1F000F80
1F000F00
3F001F00
3E001F00
3E001E00
3E003E00
7E003E00
7C003E00
7C003C00
7C007C00
7C007C18
7C00FC30
7C01F870
3C03F860
3E07F8C0
1F0EF980
1FFCFF00
0FF87E00
03C03800
ENDCHAR

STARTCHAR e
ENCODING 101
SWIDTH 448 0
DWIDTH 22 0
BBX 24 29 -1 -1
BITMAP
0007F0
001FF8
003C7C
00F03C
01E03E
01C03E
03C03E
07803E
07803C
0F807C
0F00F8
1F00F8
1F01F0
1F07C0
3E1F80
3E7E00
3FF800
3FE000
3F0000
3E0000
3E0000
3E0000
3E0038
1F0070
1F00E0
0FC3C0
0FFF80
03FE00
01F800
ENDCHAR

STARTCHAR f
ENCODING 102
SWIDTH 344 0
DWIDTH 17 0
BBX 37 47 -10 -9
BITMAP
0000001FC0
0000007FE0
000000FFF0
000001C3F0
000003C1F0
00000781E0
00000F8000
00000F0000
00000F0000
00001F0000
00001E0000
00001E0000
0003FFF000
0003FFE000
0007FFE000
00003C0000
00007C0000
00007C0000
0000780000
0000780000
0000F80000
0000F80000
0000F00000
0000F00000
0001F00000
0001F00000
0001E00000
0001E00000
0003E00000
0003E00000
0003C00000
0003C00000
0003C00000
0007C00000
0007800000
0007800000
0007800000
000F000000
000F000000
000E000000
001E000000
181C000000
3C38000000
3F70000000
3FE0000000
3FC0000000
0F00000000
ENDCHAR

STARTCHAR g
ENCODING 103
SWIDTH 583 0
DWIDTH 29 0
BBX 35 37 -4 -9
BITMAP
00007E0180
0003FFFF80
0007C1FF80
000F80F700
001F007000
003E007800
003E007800
003C007800
007C007800
007C00F800
007C00F800
007C00F000
003C01F000
003E03E000
001F07C000
001FFF0000
0079FC0000
00E0000000
01C0000000
0380000000
03C0000000
03FFF80000
03FFFF0000
00FFFF8000
007FFFC000
01E01FE000
078003E000
0F0001E000
1E0001E000
3C0001C000
3C0001C000
3C0003C000
3E00078000
1F000F0000
0FC0FC0000
07FFF80000
00FFC00000
ENDCHAR

STARTCHAR h
ENCODING 104
SWIDTH 635 0
DWIDTH 32 0
BBX 32 40 0 -1
BITMAP
001F8000
01FF8000
01FF0000
001F0000
001F0000
001E0000
001E0000
003E0000
003E0000
003C0000
007C0000
007C0FC0
00783FE0
00787FE0
00F8F3F0
00F9C1F0
00F301F0
01F601F0
01FC01F0
01F801E0
01F003E0
03E003E0
03C003C0
03C007C0
07C007C0
07C00780
07800F80
07800F80
0F800F80
0F801F00
0F001F00
1F001F0E
1F001E0C
1E003E18
1E003E38
3E003C70
3E003CE0
3C003FC0
7C003F80
00000F00
ENDCHAR

STARTCHAR i
ENCODING 105
SWIDTH 344 0
DWIDTH 17 0
BBX 16 39 2 -1
BITMAP
0078
00FC
00FC
00FC
007C
0030
0000
0000
0000
0000
3FF0
3FF0
3FF0
03E0
01E0
03E0
03E0
03C0
03C0
07C0
07C0
0780
0F80
0F80
0F00
0F00
1F00
1F00
1E00
1E00
3E1C
3E18
3C38
3C70
7C60
7CC0
7FC0
3F00
1E00
ENDCHAR

STARTCHAR j
ENCODING 106
SWIDTH 344 0
DWIDTH 17 0
BBX 26 48 -8 -9
BITMAP
00001E00
00003F00
00003F00
00003F00
00003F00
00001E00
00000000
00000000
00000000
00000000
00000000
0007FE00
0007FE00
0007FC00
00007C00
00007C00
00007C00
00007800
00007800
00007800
0000F800
0000F800
0000F000
0000F000
0001F000
0001F000
0001E000
0001E000
0003E000
0003E000
0003C000
0003C000
0007C000
0007C000
0007C000
00078000
000F8000
000F8000
000F0000
000F0000
000F0000
081E0000
3E1E0000
3E1C0000
3F3C0000
3FF80000
1FF00000
07800000
ENDCHAR

STARTCHAR k
ENCODING 107
SWIDTH 594 0
DWIDTH 30 0
BBX 30 40 0 -1
BITMAP
00078000
01FF0000
01FF0000
003F0000
001F0000
001E0000
003E0000
003E0000
003E0000
007C0000
007C0000
007C01E0
007807F0
00F80FF8
00F81FF8
00F838F8
01F07070
01F0E000
01F1C000
01F38000
03E70000
03E60000
03EC0000
07DBE000
07FFF000
07F8F800
07E07800
0FC07800
0F807800
0F807800
0F007800
1F007800
1F007800
1E00F830
3E00F870
3E00F8E0
3E00F9C0
3C00FF80
7C007F00
00003C00
ENDCHAR

STARTCHAR l
ENCODING 108
SWIDTH 344 0
DWIDTH 17 0
BBX 17 39 2 -1
BITMAP
001F00
03FE00
03FE00
007E00
003C00
007C00
007C00
007C00
007800
00F800
00F800
00F000
01F000
01F000
01F000
01E000
03E000
03E000
03C000
07C000
07C000
07C000
078000
0F8000
0F8000
0F8000
1F0000
1F0000
1F0000
1E0000
3E0000
3E1C00
3E3800
3C3000
7C7000
7CE000
7FC000
3F8000
1E0000
ENDCHAR

STARTCHAR m
ENCODING 109
SWIDTH 906 0
DWIDTH 45 0
BBX 46 29 0 -1
BITMAP
0FF80F803E00
0FF83FC0FF00
1FF87FC1FF80
00F8E7E38F80
00F383E70780
00F703EE0780
01FE03FC0780
01FC03F80F80
01F807F00F80
01F007E00F00
03E007C01F00
03E007801F00
03C00F801F00
07C00F803E00
07C00F803E00
07C01F003E00
07801F007C00
0F801F007C00
0F801E007C00
0F003E00F800
1F003E00F830
1F003E00F870
1F003C00F860
1E007C00F0C0
3E007C01F1C0
3E007C01F380
3C00F800FF00
7C00F800FE00
000000007800
ENDCHAR

STARTCHAR n
ENCODING 110
SWIDTH 635 0
DWIDTH 32 0
BBX 32 29 0 -1
BITMAP
0FFC0FC0
0FF81FE0
0FF87FE0
00F8F1F0
00F9C1F0
00F381F0
00F701F0
01FE01E0
01FC01E0
01F801E0
01F003E0
03E003C0
03E003C0
03C007C0
03C007C0
07C00780
07C00F80
07800F80
0F800F00
0F801F00
0F801F0E
0F001E0C
1F001E18
1F003E38
1E003E70
3E003EE0
3E003FC0
3E001F80
00000F00
ENDCHAR

STARTCHAR o
ENCODING 111
SWIDTH 531 0
DWIDTH 27 0
BBX 26 29 0 -1
BITMAP
000FE000
003FF800
00F87C00
01F01E00
03E01E00
07C00F00
07800F00
0F800F80
1F800F80
1F000F80
1F000F80
3E000F80
3E000F80
3E000F80
7E001F80
7E001F00
7C001F00
7C001F00
7C003F00
7C003E00
7C003E00
7C007C00
3C007800
3C00F800
1E01F000
1E03E000
0F8FC000
07FF0000
01FC0000
ENDCHAR

STARTCHAR p
ENCODING 112
SWIDTH 594 0
DWIDTH 30 0
BBX 35 37 -5 -9
BITMAP
003FE0F800
003FE3FE00
003FE7FF00
0003CE1F80
0003DC0F80
0003F00780
0007E007C0
0007C007C0
00078007C0
00078007C0
000F8007C0
000F8007C0
000F0007C0
001F000FC0
001F000F80
001E000F80
001E001F80
003E001F00
003E001F00
003C003F00
007C003E00
007E007C00
007E00FC00
007F00F800
00FB01F000
00FBC7E000
00F1FFC000
00F0FF8000
01F03E0000
01F0000000
01E0000000
03E0000000
03E0000000
03E0000000
07E0000000
3FFF000000
7FFE000000
ENDCHAR

STARTCHAR q
ENCODING 113
SWIDTH 573 0
DWIDTH 29 0
BBX 29 37 0 -9
BITMAP
0007F000
001FF830
007C3E60
00F81FE0
01F00FE0
03E007E0
07C007C0
07C007C0
0F8007C0
0F800780
1F000F80
1F000F80
3F000F80
3E001F00
3E001F00
3E001F00
7C001E00
7C003E00
7C003E00
7C003E00
7C007C00
7C007C00
7C00FC00
3C01F800
3E077800
1F0EF800
1FFCF800
0FF8F000
03E1F000
0001F000
0001F000
0001E000
0003E000
0003E000
0007E000
00FFFE00
00FFFC00
ENDCHAR

STARTCHAR r
ENCODING 114
SWIDTH 490 0
DWIDTH 24 0
BBX 26 28 0 0
BITMAP
0FF00E00
1FF03F80
1FF07F80
01F0FF80
01F1DF80
01F38F00
01F70700
01E60000
01EC0000
01F80000
03F00000
03F00000
03E00000
03C00000
07C00000
07C00000
07800000
07800000
0F800000
0F800000
0F000000
1F000000
1F000000
1E000000
1E000000
3E000000
3E000000
3C000000
ENDCHAR

STARTCHAR s
ENCODING 115
SWIDTH 448 0
DWIDTH 22 0
BBX 25 29 -1 -1
BITMAP
000FE000
007FF800
00F07C00
01E07E00
01C03E00
03C03E00
03C01E00
03E01C00
03E00000
03F00000
03F80000
01FC0000
00FF0000
007F8000
003FC000
001FE000
000FF000
0003F000
0001F800
0000F800
0800F800
3C00F800
3E00F000
3E00F000
3E00F000
3F01E000
1F87C000
0FFF8000
03FC0000
ENDCHAR

STARTCHAR t
ENCODING 116
SWIDTH 354 0
DWIDTH 18 0
BBX 18 35 1 -1
BITMAP
000C00
000C00
001C00
001C00
003800
007800
00F800
01F000
07FF80
3FFF00
3FFF00
03E000
03E000
03E000
03C000
07C000
07C000
07C000
0F8000
0F8000
0F8000
0F0000
1F0000
1F0000
1F0000
1E0000
3E0000
3E0E00
3C1C00
3C3800
7C7000
7CE000
7FC000
3F8000
1E0000
ENDCHAR

STARTCHAR u
ENCODING 117
SWIDTH 635 0
DWIDTH 32 0
BBX 31 29 2 -1
BITMAP
1FF00000
1FF001F0
3FF001F0
03F001E0
03E003E0
03E003E0
03E003C0
03C007C0
07C007C0
07C007C0
07800F80
0F800F80
0F800F80
0F001F00
1F001F00
1F001F00
1F001E00
1E003E00
3E003E00
3E007C00
3C00FC00
3C01FC38
7C077870
7C0EF860
7C1CF8C0
7E78F9C0
3FF0FF80
3FE07F00
0F803C00
ENDCHAR

STARTCHAR v
ENCODING 118
SWIDTH 542 0
DWIDTH 27 0
BBX 26 29 1 -1
BITMAP
3FF01E00
3FF01F00
3FF03F00
03F03F80
03E01F80
03E00F80
03E00780
03C00780
07C00380
07C00380
07C00380
07800300
0F800300
0F800300
0F000700
1F000600
1F000E00
1F000C00
1E001C00
1E001C00
3E003800
3E003800
3E007000
3E00E000
1E01C000
1F878000
0FFF0000
07FE0000
01F80000
ENDCHAR

STARTCHAR w
ENCODING 119
SWIDTH 812 0
DWIDTH 41 0
BBX 39 29 2 -1
BITMAP
3FF0000000
3FF007C0E0
3FF007C1F0
03E00781F8
03E00F81F8
03E00F81F8
03C00F80F8
07C00F0078
07C01F0038
07801F0038
07801E0038
0F801E0030
0F803E0030
0F003E0030
1F003C0070
1F007C0060
1E007C0060
3E007C00E0
3E00F800C0
3E00F801C0
3C01F80180
7C03F80380
7C03780700
7C06780600
7C0E7C0E00
3E1C7E3C00
3FF83FF800
1FF01FE000
0F800F8000
ENDCHAR

STARTCHAR x
ENCODING 120
SWIDTH 583 0
DWIDTH 29 0
BBX 33 29 -2 -1
BITMAP
003E007C00
007F00FE00
00FF01FE00
01DF81FE00
018F831E00
0307870000
0307C60000
0707CC0000
0003DC0000
0003F80000
0003F00000
0001F00000
0001F00000
0001F00000
0001F00000
0001F00000
0003F80000
0007F80000
000E780000
000C7C0000
001C7C0000
00187C0C00
00303C1C00
1C703E1800
3EE03E3000
3FC01F7000
3F801FE000
3F000FC000
1E00078000
ENDCHAR

STARTCHAR y
ENCODING 121
SWIDTH 521 0
DWIDTH 26 0
BBX 32 37 -5 -9
BITMAP
001E0070
003F00F8
007F00FC
007F00FC
00EF807C
00CF803C
01CF803C
0187801C
0187C01C
0007C018
0007C018
0007C038
0007C030
0007C070
0003C060
0003C0E0
0003C0C0
0003C1C0
0003E380
0003E300
0003E700
0003EE00
0003EC00
0003FC00
0001F800
0001F000
0001E000
0001C000
00018000
00038000
00070000
1C0E0000
3E1C0000
3F780000
3FF00000
3FC00000
1F800000
ENDCHAR

STARTCHAR z
ENCODING 122
SWIDTH 510 0
DWIDTH 26 0
BBX 30 29 -3 -1
BITMAP
001FC030
003FF0F0
007FFFE0
00FFFFE0
01E7FEC0
0180F9C0
01800380
00000300
00000700
00000E00
00003C00
00007800
0000F000
0001E000
0003C000
000F0000
001E0000
003C0000
00780000
00E00000
01C00000
018000C0
038001C0
073F01C0
0EFFE380
0FFFFF00
1FFFFF00
1C0FFE00
3801F800
ENDCHAR

STARTCHAR braceleft
ENCODING 123
SWIDTH 479 0
DWIDTH 24 0
BBX 23 45 7 -8
BITMAP
000038
0000C0
000380
000700
000E00
001C00
001C00
003C00
003C00
003C00
003C00
007C00
007C00
007800
007800
007800
007000
00E000
00C000
018000
060000
180000
700000
0C0000
060000
030000
038000
038000
038000
078000
078000
0F8000
1F0000
1F0000
1E0000
3E0000
3C0000
3C0000
380000
380000
180000
1C0000
0C0000
070000
018000
ENDCHAR

STARTCHAR bar
ENCODING 124
SWIDTH 510 0
DWIDTH 26 0
BBX 5 42 10 -1
BITMAP
70
70
70
70
70
70
70
70
70
70
70
70
70
70
70
70
70
70
70
70
70
70
70
70
70
70
70
70
70
70
70
70
70
70
70
70
70
70
70
70
70
70
ENDCHAR

STARTCHAR braceright
ENCODING 125
SWIDTH 479 0
DWIDTH 24 0
BBX 23 45 1 -8
BITMAP
000380
0000E0
000070
000030
000038
000038
000038
000078
000078
0000F8
0000F0
0001F0
0001E0
0003E0
0003C0
0003C0
000380
000380
000180
0001C0
0000E0
000038
00001C
0000E0
000180
000700
000E00
001C00
001C00
003C00
003C00
003C00
007C00
007C00
007800
007800
007800
007000
007000
00E000
00C000
018000
030000
0C0000
300000
ENDCHAR

STARTCHAR asciitilde
ENCODING 126
SWIDTH 667 0
DWIDTH 33 0
BBX 29 8 2 12
BITMAP
03800010
0FF80030
1FFE0030
183F8060
300FF0E0
2001FFC0
20007F80
20000E00
ENDCHAR

STARTCHAR space
ENCODING 160
SWIDTH 250 0
DWIDTH 16 0
BBX 0 0 0 0
BITMAP
ENDCHAR

STARTCHAR afii10023
ENCODING 161
SWIDTH 708 0
DWIDTH 35 0
BBX 41 47 -2 0
BITMAP
00000701C000
00000F83E000
00000F83E000
00000F83E000
00000701C000
000000000000
000000000000
000000000000
000000000000
000000000000
003FFFFFFE00
003FFFFFFE00
0003F801FE00
0001F8007E00
0001F0003E00
0001F0003C00
0003F0001C00
0003E0001C00
0003E0001C00
0007E0001800
0007E0001800
0007C0183800
0007C0380000
000FC0300000
000FC0700000
000F80F00000
000F87F00000
001FFFE00000
001FFFE00000
001F0FE00000
001F03E00000
003F01C00000
003E01C00000
003E01C00000
003E01C03000
007E01807000
007C01807000
007C0000E000
00FC0000E000
00FC0001E000
00F80003C000
00F80007C000
01F8000FC000
01F8001F8000
03F801FF8000
3FFFFFFF8000
3FFFFFFF0000
ENDCHAR

STARTCHAR afii10051
ENCODING 162
SWIDTH 842 0
DWIDTH 42 0
BBX 40 38 3 -1
BITMAP
07FFFFFFE0
0FFFFFFFE0
0FF0FE0FE0
0F80FC03E0
1F00FC01E0
1E00F801C0
1C00F801C0
3800F801C0
3801F801C0
3001F00180
0001F00000
0001F00000
0003F00000
0003E03F00
0003E1FFC0
0007E7FFF0
0007CF83F0
0007FC01F8
0007F800F8
000FE000FC
000FC000FC
000F8000FC
000F8000FC
001F8000FC
001F0000FC
001F0000FC
003F0001FC
003F0001F8
003E0001F8
003E0001F0
007E0003F0
007E0003E0
007C0003E0
007C0007C0
00FE018F80
1FFFF3FF00
1FFFE1FE00
0000007800
ENDCHAR

STARTCHAR afii10052
ENCODING 163
SWIDTH 676 0
DWIDTH 34 0
BBX 42 47 -2 0
BITMAP
00000003C000
0000000FC000
0000001FC000
0000007F8000
000000FC0000
000003C00000
000000000000
000000000000
000000000000
000000000000
003FFFFFFF00
003FFFFFFF00
0003F800FF00
0001F0003E00
0003F0001E00
0003F0000E00
0003E0000E00
0003E0000C00
0007E0000C00
0007E0000C00
0007C0001C00
0007C0001C00
000FC0000000
000F80000000
000F80000000
000F80000000
001F80000000
001F00000000
001F00000000
001F00000000
003F00000000
003E00000000
003E00000000
007E00000000
007C00000000
007C00000000
007C00000000
00FC00000000
00F800000000
00F800000000
00F800000000
01F800000000
01F000000000
01F000000000
03F800000000
3FFF80000000
3FFF80000000
ENDCHAR

STARTCHAR afii10053
ENCODING 164
SWIDTH 708 0
DWIDTH 35 0
BBX 37 39 3 -1
BITMAP
00007FE000
0001FFFC00
0007F07F00
001F801F80
003F000FC0
007E0007E0
00FC0003E0
01F80003E0
03F00003C0
07F00001C0
07E00001C0
0FC00001C0
0FC00001C0
1F80000180
1F80000000
3F80000000
3F00000000
3FFFF80000
3FFFF00000
7FFFF00000
7E00000000
7E00000000
7E00000000
7E00000000
7E00000000
7E00000000
7E00000000
7E00000600
3F00000E00
3F00000C00
3F00001C00
1F80003800
1F80007000
0FC000F000
07E003E000
07F80F8000
01FFFF0000
007FFC0000
000FE00000
ENDCHAR

STARTCHAR afii10054
ENCODING 165
SWIDTH 646 0
DWIDTH 32 0
BBX 35 39 -1 -1
BITMAP
0000FFC000
0003FFFC00
000FC0FF00
001F003F80
003E001F80
007C000F80
007C000F80
00F8000700
00F8000700
00F8000700
00FC000700
00FC000600
00FE000600
00FF000000
007F800000
003FE00000
003FF80000
000FFE0000
0007FF8000
0001FFC000
0000FFF000
00003FF800
00000FF800
000003FC00
000001FC00
060000FE00
0E00007E00
0E00007E00
0E00007E00
0E00007E00
1E00007C00
1E00007C00
1E0000FC00
3F0000F800
3F8001F000
3FC007E000
3FF83FC000
07FFFF0000
007FFC0000
ENDCHAR

STARTCHAR afii10055
ENCODING 166
SWIDTH 406 0
DWIDTH 20 0
BBX 28 37 -2 0
BITMAP
003FFFE0
003FFFE0
0003FC00
0001F800
0001F000
0001F000
0003F000
0003F000
0003E000
0003E000
0007E000
0007E000
0007C000
0007C000
000FC000
000FC000
000F8000
000F8000
001F8000
001F0000
001F0000
001F0000
003F0000
003E0000
003E0000
007E0000
007E0000
007C0000
007C0000
00FC0000
00FC0000
00F80000
00F80000
01F80000
03FC0000
3FFFC000
3FFFC000
ENDCHAR

STARTCHAR afii10056
ENCODING 167
SWIDTH 406 0
DWIDTH 20 0
BBX 29 47 -2 0
BITMAP
000701C0
000F83E0
000F83E0
000F83E0
000701C0
00000000
00000000
00000000
00000000
00000000
003FFFC0
003FFFC0
0003F800
0001F800
0001F000
0001F000
0003F000
0003E000
0003E000
0007E000
0007E000
0007C000
0007C000
000FC000
000FC000
000F8000
000F8000
001F8000
001F0000
001F0000
001F0000
003F0000
003E0000
003E0000
007E0000
007E0000
007C0000
007C0000
00FC0000
00FC0000
00F80000
00F80000
01F80000
01F80000
03F80000
3FFFC000
7FFFC000
ENDCHAR

STARTCHAR afii10057
ENCODING 168
SWIDTH 615 0
DWIDTH 31 0
BBX 38 38 -1 -1
BITMAP
00001FFFF8
00001FFFF0
0000007F00
0000007E00
0000007E00
0000007C00
0000007C00
000000FC00
000000FC00
000000F800
000000F800
000001F800
000001F800
000001F000
000001F000
000003F000
000003E000
000003E000
000007E000
000007E000
000007C000
000007C000
00000FC000
00000FC000
0F800F8000
1FC00F8000
1FC01F8000
3FC01F8000
3FC01F0000
3F803F0000
3E003F0000
3C003E0000
3C007E0000
1C00FC0000
1E01F80000
0F87F00000
07FFC00000
01FF000000
ENDCHAR

STARTCHAR afii10058
ENCODING 169
SWIDTH 1096 0
DWIDTH 55 0
BBX 57 38 -3 -1
BITMAP
0000FFFFFFFE0000
0000FFFFFFFE0000
00001FE007E00000
00000FC007C00000
00000F800FC00000
000007800FC00000
000007000F800000
00000F000F800000
00000F001F800000
00000E001F800000
00000E001F000000
00001C001F000000
00001C003F000000
00001C003E000000
000018003E000000
000038003E000000
000038007E000000
000030007FFF0000
000070007FFFE000
00007000FC0FF000
0000E000FC01F800
0000E000F800FC00
0000E000F800FC00
0001C001F8007E00
0001C001F8007E00
00018001F0007E00
00038001F0007E00
00030003F0007E00
00070003E000FE00
00070003E000FC00
1C0E0003E000FC00
3E0E0007E001F800
7E1C0007C003F800
7F380007C007E000
7FF8000FE03FC000
7FF001FFFFFF0000
3FC001FFFFFC0000
0F00000000000000
ENDCHAR

STARTCHAR afii10059
ENCODING 170
SWIDTH 1061 0
DWIDTH 53 0
BBX 55 37 -2 0
BITMAP
003FFFC3FFFC00
003FFF83FFF800
0003F8003F8000
0001F0001F0000
0001F0003F0000
0003F0003F0000
0003E0003E0000
0003E0003E0000
0003E0007E0000
0007E0007E0000
0007C0007C0000
0007C0007C0000
000FC000FC0000
000FC000F80000
000F8000F80000
000F8000F80000
001F8001F80000
001FFFFFFFF800
001FFFFFFFFF00
001FFFFFFFFFC0
003F0003F00FE0
003F0003E007F0
003E0003E003F0
003E0003E001F8
007E0007E001F8
007E0007C001F8
007C0007C001F8
007C000FC001F8
00FC000F8001F8
00F8000F8003F8
00F8000F8003F0
01F8001F8007E0
01F8001F000FE0
01F8001F001FC0
03F8003F80FF00
3FFFC3FFFFFC00
3FFFC3FFFFF000
ENDCHAR

STARTCHAR afii10060
ENCODING 171
SWIDTH 847 0
DWIDTH 42 0
BBX 39 37 2 0
BITMAP
07FFFFFFF0
07FFFFFFF0
0FF0FE0FF0
0FC07C03E0
0F807C01E0
1F007C01E0
1E00FC01E0
1C00F800C0
3800F800C0
3801F800C0
3001F800C0
0001F00000
0001F00000
0003F00000
0003F03F80
0003E0FFE0
0003E3FFF0
0007EF83F0
0007DE01F0
0007F801F0
0007F001F0
000FC001F0
000F8003F0
000F8003E0
001F8003E0
001F8007E0
001F0007E0
001F0007C0
003F0007C0
003E000FC0
003E000FC0
003E000F80
007E000F80
007E001F80
00FE003F80
0FFFF3FFF8
1FFFF3FFF8
ENDCHAR

STARTCHAR afii10061
ENCODING 172
SWIDTH 779 0
DWIDTH 39 0
BBX 47 47 -2 0
BITMAP
000000003800
00000000FC00
00000001FC00
00000007F800
0000000FE000
0000003E0000
000000200000
000000000000
000000000000
0000000003F0
003FFFC007F8
003FFF800FF8
0003FC001FF8
0001F8003FF8
0003F00039F8
0003F0007060
0003E0006000
0003E000E000
0007E000C000
0007E001C000
0007C0018000
0007C0038000
000FC0030000
000F80070000
000F800E0000
001F801C0000
001F803C0000
001F00F80000
001FFFE00000
003FFFE00000
003F03F00000
003E00F80000
003E00FC0000
007E007C0000
007C007C0000
007C003E0000
007C003E0000
00FC003E0000
00F8001F0000
00F8001F0000
01F8000F8000
01F8000F8000
01F0000F8000
01F00007C000
07F80007E000
3FFFC003FC00
3FFF8003FC00
ENDCHAR

STARTCHAR hyphen
ENCODING 173
SWIDTH 281 0
DWIDTH 14 0
BBX 14 4 0 12
BITMAP
3FF8
3FF0
3FF0
3FF0
ENDCHAR

STARTCHAR afii10062
ENCODING 174
SWIDTH 738 0
DWIDTH 37 0
BBX 42 49 4 -1
BITMAP
0000E00F0000
0001F00F0000
0001F00F0000
0001F00F0000
0000E00F0000
0000F01E0000
00003FFC0000
00000FE00000
000000000000
000000000000
000000000000
1FFF803FFF00
1FFF803FFF00
03FC0001F800
01F80001E000
01F80001C000
00F80001C000
00F800038000
00F800070000
00FC00070000
007C000E0000
007C001C0000
007C001C0000
007E00380000
003E00700000
003E00700000
003F00E00000
001F01C00000
001F01C00000
001F03800000
001F87000000
000F87000000
000F8E000000
000F9C000000
0007DC000000
0007F8000000
0007F0000000
0007F0000000
0003E0000000
0003C0000000
1E03C0000000
3F0380000000
7F0700000000
7F0600000000
7F8E00000000
7FBC00000000
3FF800000000
1FF000000000
0FC000000000
ENDCHAR

STARTCHAR afii10145
ENCODING 175
SWIDTH 823 0
DWIDTH 41 0
BBX 49 46 -2 -9
BITMAP
003FFFC0FFFE00
003FFF80FFFE00
0003F8000FE000
0003F00007C000
0003F00007C000
0003F0000FC000
0003E0000F8000
0003E0000F8000
0007E0001F8000
0007E0001F8000
0007C0001F0000
000FC0001F0000
000FC0003F0000
000F80003F0000
000F80003E0000
001F80003E0000
001F80007E0000
001F00007C0000
001F00007C0000
003F00007C0000
003E0000FC0000
003E0000F80000
007E0000F80000
007E0001F80000
007C0001F80000
007C0001F00000
00FC0001F00000
00FC0003F00000
00F80003E00000
00F80003E00000
01F80003E00000
01F00007E00000
01F00007C00000
03F00007C00000
03F8000FE00000
3FFFFFFFFE0000
3FFFFFFFFE0000
0007FF80000000
0001FC00000000
0000F800000000
0000F000000000
0000F000000000
0000E000000000
0000E000000000
0000C000000000
0001C000000000
ENDCHAR

STARTCHAR afii10017
ENCODING 176
SWIDTH 753 0
DWIDTH 38 0
BBX 42 38 -5 0
BITMAP
0000000E0000
0000001E0000
0000001E0000
0000003E0000
0000003F0000
0000007F0000
000000FF0000
000000FF0000
000001DF0000
0000039F0000
0000039F8000
0000070F8000
00000E0F8000
00000E0F8000
00001C0F8000
0000180F8000
0000380FC000
00007007C000
00007007C000
0000E007C000
0001C007C000
0001C007C000
00038007C000
0003FFFFE000
0007FFFFE000
000FFFFFE000
000C0003E000
001C0003E000
00380003E000
00380003F000
00700001F000
00F00001F000
00E00001F000
01E00001F000
03E00001F800
0FF80003FC00
3FFE003FFF00
3FFE003FFF00
ENDCHAR

STARTCHAR afii10018
ENCODING 177
SWIDTH 767 0
DWIDTH 38 0
BBX 42 37 -2 0
BITMAP
003FFFFFFF00
003FFFFFFF00
0003F001FE00
0003F0003E00
0003F0001E00
0003E0001E00
0003E0001E00
0003E0000C00
0007E0001C00
0007C0001C00
0007C0001C00
0007C0001800
000FC0000000
000F80000000
000F80000000
001F80000000
001F80000000
001FFFFC0000
001FFFFF8000
003F001FC000
003F0007E000
003E0003F000
003E0003F000
007E0001F800
007C0001F800
007C0001F800
00FC0001F800
00FC0001F800
00F80003F800
00F80003F000
01F80003F000
01F00007E000
01F0000FC000
03F0001F8000
07F800FF0000
3FFFFFFC0000
3FFFFFC00000
ENDCHAR

STARTCHAR afii10019
ENCODING 178
SWIDTH 766 0
DWIDTH 38 0
BBX 41 37 -2 0
BITMAP
003FFFFF8000
003FFFFFF000
0003F807F800
0003F001FC00
0003F000FC00
0003F0007E00
0003E0007E00
0003E0007E00
0007E0007E00
0007E0007E00
0007C0007E00
0007C000FC00
000FC000FC00
000F8001F800
000F8003F000
001F8007E000
001F801F8000
001FFFFC0000
001FFFFE0000
003F001F8000
003F0007C000
003E0003E000
003E0003F000
007E0001F800
007E0001F800
007C0001F800
007C0001F800
00FC0001F800
00FC0003F800
00F80003F000
01F80007F000
01F80007E000
01F0000FE000
01F0001FC000
03F800FF0000
3FFFFFFE0000
3FFFFFE00000
ENDCHAR

STARTCHAR afii10020
ENCODING 179
SWIDTH 676 0
DWIDTH 34 0
BBX 42 37 -2 0
BITMAP
003FFFFFFF00
003FFFFFFF00
0003F800FF00
0001F0003E00
0003F0001E00
0003F0000E00
0003E0000E00
0003E0000C00
0007E0000C00
0007E0000C00
0007C0001C00
0007C0001C00
000FC0000000
000F80000000
000F80000000
000F80000000
001F80000000
001F00000000
001F00000000
001F00000000
003F00000000
003E00000000
003E00000000
007E00000000
007C00000000
007C00000000
007C00000000
00FC00000000
00F800000000
00F800000000
00F800000000
01F800000000
01F000000000
01F000000000
03F800000000
3FFF80000000
3FFF80000000
ENDCHAR

STARTCHAR afii10021
ENCODING 180
SWIDTH 803 0
DWIDTH 40 0
BBX 51 46 -6 -9
BITMAP
00003FFFFFFFC0
00003FFFFFFF80
000007F801F800
000003E001F800
000003C001F000
000003C001F000
000003C003F000
0000038003E000
0000038003E000
0000030007E000
0000070007E000
0000070007C000
0000060007C000
000006000FC000
00000E000F8000
00000C000F8000
00000C000F8000
00001C001F8000
000018001F0000
000018001F0000
000038001F0000
000030003F0000
000070003E0000
000070003E0000
000060007E0000
0000E0007C0000
0000C0007C0000
0001C0007C0000
00038000FC0000
00030000F80000
00070000F80000
000E0000F80000
001C0001F80000
00380001F80000
01E00003F80000
07FFFFFFFF8000
0FFFFFFFFF8000
0FF000003F8000
0F8000001F8000
0F0000000F0000
1E0000000F0000
1C0000000F0000
18000000060000
18000000060000
380000000E0000
300000000E0000
ENDCHAR

STARTCHAR afii10022
ENCODING 181
SWIDTH 708 0
DWIDTH 35 0
BBX 41 37 -2 0
BITMAP
003FFFFFFE00
003FFFFFFE00
0003F801FE00
0001F0007E00
0003F0003C00
0003F0003C00
0003E0003C00
0003E0001C00
0007E0001800
0007E0003800
0007C0003800
0007C0383800
000FC0300000
000F80700000
000F80700000
000F81F00000
001F87E00000
001FFFE00000
001FFFE00000
003F0FC00000
003F07C00000
003E03C00000
003E03C00000
007E01800000
007E01803000
007C03807000
007C03806000
00FC0000E000
00F80000E000
00F80001C000
00F80003C000
01F80007C000
01F0000F8000
01F0003F8000
03F801FF8000
3FFFFFFF8000
3FFFFFFF0000
ENDCHAR

STARTCHAR afii10024
ENCODING 182
SWIDTH 1175 0
DWIDTH 59 0
BBX 68 38 -4 0
BITMAP
0001E0000000000780
0007F0007FFF001FC0
0007F800FFFF003FE0
0007F8000FF0003FE0
0007FC0007E0007FE0
0007FC0007C000FFC0
0003FC0007C000E380
00001C000FC001C000
00000C000F80018000
00000E000F80038000
00000E001F80030000
00000E001F80070000
00000E001F00060000
000006001F000E0000
000006003F001C0000
000007003F00380000
000007003E00780000
000003803E00F00000
000001E07E03E00000
000000FFFFFF800000
00000FFFFFFFC00000
00001FC07C0FE00000
00003F00FC07E00000
00007E00F803F00000
0000FC00F801F00000
0001F801F801F80000
0003F001F800F80000
0007E001F000F80000
000FE001F000FC0000
001FC003F0007C0000
003F8003E0007C0000
007F0003E0007E0000
007E0007E0003E0000
00FE0007E0003E0000
01FC000FE0003F0000
07F8001FF0003F8000
3FF001FFFE001FF000
3FE001FFFE001FF000
ENDCHAR

STARTCHAR afii10025
ENCODING 183
SWIDTH 632 0
DWIDTH 32 0
BBX 36 39 -1 -1
BITMAP
00007FF000
0007FFFE00
001FE07F00
001F803F80
003E001FC0
003C000FC0
0078000FC0
0078000FC0
0070000FC0
00E0000FC0
00E0001F80
00C0001F80
0000003F00
0000003F00
0000007E00
000000F800
000003F000
0001FFC000
0001FC0000
0003FFC000
00000FF000
000003F800
000001F800
000001FC00
000000FC00
000000FC00
000000FC00
000000FC00
000000FC00
100001F800
700001F800
300003F000
380007F000
3C000FE000
1E001FC000
0F80FF8000
07FFFE0000
03FFF80000
007FC00000
ENDCHAR

STARTCHAR afii10026
ENCODING 184
SWIDTH 823 0
DWIDTH 41 0
BBX 49 37 -2 0
BITMAP
003FFFC0FFFF00
003FFFC0FFFE00
0003F8000FE000
0001F00007E000
0001F00007C000
0003F0000FC000
0003F0001FC000
0003E0003F8000
0003E0007F8000
0007E000FF8000
0007C001DF8000
0007C0039F0000
0007C0071F0000
000FC00E3F0000
000F801C3F0000
000F80383E0000
001F80703E0000
001F00E07E0000
001F01C07C0000
001F03C07C0000
003F0780FC0000
003E0F00FC0000
003E1E00F80000
003E3C00F80000
007E7801F80000
007CF001F80000
007DE001F00000
00FFC001F00000
00FF8003F00000
00FF0003E00000
00FE0003E00000
01FC0007E00000
01F80007E00000
01F00007E00000
03F8000FE00000
3FFFC0FFFE0000
3FFFC0FFFE0000
ENDCHAR

STARTCHAR afii10027
ENCODING 185
SWIDTH 823 0
DWIDTH 41 0
BBX 49 48 -2 0
BITMAP
000001C01E0000
000003E01E0000
000003E01E0000
000003E01E0000
000003E01E0000
000001E03C0000
000000FFF80000
0000003FC00000
00000000000000
00000000000000
00000000000000
003FFFC0FFFF00
003FFFC0FFFE00
0003F8000FE000
0001F80007C000
0001F0000FC000
0001F0000FC000
0003F0001FC000
0003E0003F8000
0003E0007F8000
0007E000FF8000
0007E001DF8000
0007C0039F0000
0007C0071F0000
000FC00E3F0000
000F801C3E0000
000F80383E0000
000F80707E0000
001F80E07E0000
001F01E07C0000
001F03C07C0000
003F0780FC0000
003F0F00FC0000
003E1E00F80000
003E3C00F80000
007E7801F80000
007CF001F00000
007DE001F00000
007FC001F00000
00FF8003F00000
00FF0003E00000
00FE0003E00000
00FC0007E00000
01F80007E00000
01F00007C00000
03F8000FE00000
3FFFC0FFFE0000
3FFFC0FFFE0000
ENDCHAR

STARTCHAR afii10028
ENCODING 186
SWIDTH 779 0
DWIDTH 39 0
BBX 47 38 -2 0
BITMAP
0000000003F0
003FFFC007F8
003FFF800FF8
0003FC001FF8
0001F8003FF8
0003F00039F8
0003F0007060
0003E0006000
0003E000E000
0007E000C000
0007E001C000
0007C0018000
0007C0038000
000FC0030000
000F80070000
000F800E0000
001F801C0000
001F803C0000
001F00F80000
001FFFE00000
003FFFE00000
003F03F00000
003E00F80000
003E00FC0000
007E007C0000
007C007C0000
007C003E0000
007C003E0000
00FC003E0000
00F8001F0000
00F8001F0000
01F8000F8000
01F8000F8000
01F0000F8000
01F00007C000
07F80007E000
3FFFC003FC00
3FFF8003FC00
ENDCHAR

STARTCHAR afii10029
ENCODING 187
SWIDTH 830 0
DWIDTH 42 0
BBX 50 38 -3 -1
BITMAP
00007FFFFFFF00
00007FFFFFFF00
00001FF003F000
00000FE003F000
000007C003E000
0000078003E000
0000078007E000
0000070007C000
0000070007C000
00000F000FC000
00000E000FC000
00000E000F8000
00000E000F8000
00001C001F8000
00001C001F0000
000018001F0000
000038001F0000
000038003F0000
000030003E0000
000070003E0000
000070007E0000
000060007E0000
0000E0007C0000
0000E0007C0000
0001C000FC0000
0001C000F80000
00018000F80000
00038000F80000
00030001F80000
00070001F00000
1E060001F00000
3F0E0003F00000
3F1C0003E00000
7F1C0003E00000
3FF80007F00000
3FF0007FFF0000
3FE000FFFF0000
0F000000000000
ENDCHAR

STARTCHAR afii10030
ENCODING 188
SWIDTH 979 0
DWIDTH 49 0
BBX 57 37 -2 0
BITMAP
003FFE00001FFE00
007FFE00003FFE00
0003FE00003FE000
0001FE000077C000
0001BE0000EFC000
0003BE0000EF8000
00039F0001CF8000
00031F00018F8000
00031F00039F8000
00071F00071F0000
00071F00071F0000
00061F000E3F0000
00061F001C3F0000
000E1F001C3E0000
000E1F00383E0000
000C1F00387E0000
000C1F80707E0000
001C0F80E07C0000
001C0F80E07C0000
00180F81C0FC0000
00380F81C0F80000
00380F8380F80000
00380F8700F80000
00300F8701F80000
00700F8E01F00000
00700F8C01F00000
00600F9C03F00000
00600FF803F00000
00E007F803E00000
00E007F003E00000
00C007E007E00000
01C007E007E00000
01E007C007C00000
03E007C007C00000
0FF807800FE00000
3FFF0700FFFE0000
3FFE0700FFFE0000
ENDCHAR

STARTCHAR afii10031
ENCODING 189
SWIDTH 812 0
DWIDTH 41 0
BBX 49 37 -2 0
BITMAP
003FFFC1FFFE00
003FFF81FFFE00
0003F8000FE000
0001F0000FC000
0003F0000FC000
0003F0000F8000
0003E0000F8000
0003E0001F8000
0007E0001F0000
0007C0001F0000
0007C0003F0000
0007C0003F0000
000FC0003E0000
000F80003E0000
000F80007E0000
001F80007E0000
001FFFFFFC0000
001FFFFFFC0000
001FFFFFFC0000
003F0000FC0000
003E0000F80000
003E0000F80000
003E0001F80000
007E0001F80000
007C0001F00000
007C0001F00000
007C0003F00000
00FC0003E00000
00F80003E00000
00F80007E00000
00F80007E00000
01F80007C00000
01F00007C00000
01F0000FC00000
03F8001FE00000
3FFFC1FFFC0000
3FFF81FFFC0000
ENDCHAR

STARTCHAR afii10032
ENCODING 190
SWIDTH 787 0
DWIDTH 39 0
BBX 38 39 2 -1
BITMAP
00003FE000
0001FFFC00
0007E03E00
000F800F00
003F000780
007E0003C0
00FC0003E0
01F80001E0
01F00001F0
03F00001F0
07E00001F0
07E00001F8
0FC00001F8
0FC00001F8
1F800001F8
1F800001F8
3F800001F8
3F000001F8
3F000003F8
3F000003F0
7F000003F0
7E000003F0
7E000007F0
7E000007E0
7E000007E0
7E00000FE0
7E00000FC0
7E00000FC0
3E00001F80
3E00001F00
3E00003F00
1F00007E00
1F0000FC00
0F8001F800
078003F000
03C007C000
01F03F8000
00FFFE0000
001FF00000
ENDCHAR

STARTCHAR afii10033
ENCODING 191
SWIDTH 823 0
DWIDTH 41 0
BBX 49 37 -2 0
BITMAP
001FFFFFFFFE00
003FFFFFFFFE00
0003FC000FF000
0001F80007E000
0001F00007E000
0001F00007C000
0003F00007C000
0003E0000FC000
0003E0000F8000
0007E0000F8000
0007E0001F8000
0007C0001F8000
0007C0001F0000
000FC0001F0000
000F80003F0000
000F80003F0000
000F80003E0000
001F80003E0000
001F00007E0000
001F00007C0000
001F00007C0000
003F0000FC0000
003E0000FC0000
003E0000F80000
007E0000F80000
007E0001F80000
007C0001F80000
007C0001F00000
00FC0003F00000
00F80003F00000
00F80003E00000
00F80003E00000
01F80007E00000
01F80007E00000
03F8000FE00000
3FFFC0FFFE0000
3FFF80FFFE0000
ENDCHAR

STARTCHAR afii10034
ENCODING 192
SWIDTH 704 0
DWIDTH 35 0
BBX 40 37 -2 0
BITMAP
003FFFFF00
003FFFFFC0
0003F807F0
0001F001F8
0001F000FC
0003F0007C
0003E0007E
0003E0007E
0007E0007E
0007E0007E
0007C0007E
0007C0007E
000FC000FC
000FC000FC
000F8001F8
000F8003F8
001F8007F0
001F001FE0
001FFFFF80
001FFFFC00
003F000000
003E000000
003E000000
007E000000
007E000000
007C000000
007C000000
00FC000000
00FC000000
00F8000000
00F8000000
01F8000000
01F8000000
01F8000000
03F8000000
3FFFC00000
3FFFC00000
ENDCHAR

STARTCHAR afii10035
ENCODING 193
SWIDTH 708 0
DWIDTH 35 0
BBX 37 39 3 -1
BITMAP
00003FE000
0001FFFC00
0007F03F00
001F801F80
003F000FC0
007E0007E0
00FC0003E0
01F80003E0
03F00003C0
03E00001C0
07E00001C0
0FC00001C0
0FC00001C0
1FC0000180
1F80000000
1F80000000
3F00000000
3F00000000
3F00000000
3F00000000
7E00000000
7E00000000
7E00000000
7E00000000
7E00000000
7E00000000
7E00000000
7E00000600
7E00000E00
3F00000C00
3F00001C00
1F80003800
1F80007800
0FC000F000
0FE003E000
07FC0F8000
01FFFF0000
00FFFC0000
001FE00000
ENDCHAR

STARTCHAR afii10036
ENCODING 194
SWIDTH 708 0
DWIDTH 35 0
BBX 39 37 3 0
BITMAP
03FFFFFFF8
03FFFFFFF8
07FC7F07F8
07E03F01F0
07C03E00F0
0F803E00F0
0F007E00F0
0E007C00E0
1C007C00E0
1C00FC00E0
1800FC00E0
3800F800C0
3000F800C0
0001F80000
0001F00000
0001F00000
0001F00000
0003F00000
0003E00000
0003E00000
0003E00000
0007E00000
0007C00000
0007C00000
000FC00000
000FC00000
000F800000
000F800000
001F800000
001F800000
001F000000
001F000000
003F000000
003F000000
007F000000
0FFFF80000
1FFFF80000
ENDCHAR

STARTCHAR afii10037
ENCODING 195
SWIDTH 738 0
DWIDTH 37 0
BBX 42 38 3 -1
BITMAP
0FFFC01FFF80
0FFFC01FFF00
03FC0001FC00
01F80000F000
00F80000E000
00F80001E000
00FC0001C000
007C00038000
007C00070000
007C00070000
007E000E0000
003E001C0000
003E001C0000
003F00380000
001F00700000
001F00700000
001F00E00000
001F81C00000
000F81C00000
000F83800000
000F87000000
000FC7000000
0007CE000000
0007DC000000
0007D8000000
0003F8000000
0003F0000000
0003E0000000
0003E0000000
1F01C0000000
3F0180000000
3F8380000000
3F8700000000
3F8E00000000
3FDC00000000
3FF800000000
1FF000000000
07C000000000
ENDCHAR

STARTCHAR afii10038
ENCODING 196
SWIDTH 874 0
DWIDTH 44 0
BBX 44 37 2 0
BITMAP
00001FFFC000
00001FFFC000
000003FC0000
000001F80000
000001F00000
0003FFFFC000
001FFFFFF800
007F83F1FC00
00FC03E07F00
01F803E03F00
03F007E01F80
07E007E00F80
0FC007C00FC0
0F8007C007C0
1F800FC007C0
1F000FC007C0
1F000F8007C0
3F000F8007C0
3E001F8007C0
3E001F800FC0
3E001F000FC0
3E001F000F80
3E003F001F80
3E003E001F00
3F003E003F00
1F007E007E00
1F807E00FC00
0F807C01F800
07E07C03F000
03F8FC1FE000
01FFFFFF0000
003FFFF80000
0000F8000000
0001F8000000
0003F8000000
003FFF800000
003FFF800000
ENDCHAR

STARTCHAR afii10039
ENCODING 197
SWIDTH 760 0
DWIDTH 38 0
BBX 49 37 -4 0
BITMAP
001FFFC07FFE00
001FFFC07FFE00
0001FC001FF000
0000FC000FC000
0000FC000F8000
00007C000F0000
00007E001E0000
00003E003C0000
00003F00780000
00001F00F00000
00001F81E00000
00001F83800000
00000FC7000000
00000FCE000000
000007DC000000
000007F8000000
000003F0000000
000003F0000000
000003F0000000
000007F8000000
00000FF8000000
00001EFC000000
00003C7C000000
0000787E000000
0000F07E000000
0001E03E000000
0003C03F000000
0007801F000000
000F001F800000
001E000F800000
003C000FC00000
00780007C00000
00F80007E00000
01F80007E00000
07FE000FF80000
3FFF80FFFF0000
3FFF80FFFE0000
ENDCHAR

STARTCHAR afii10040
ENCODING 198
SWIDTH 823 0
DWIDTH 41 0
BBX 49 46 -2 -9
BITMAP
003FFFC0FFFE00
003FFF80FFFE00
0003F8000FE000
0003F0000FC000
0003F0000FC000
0003F0000FC000
0003E0000F8000
0003E0000F8000
0007E0001F8000
0007E0001F8000
0007C0001F0000
000FC0003F0000
000FC0003F0000
000FC0003F0000
000F80003E0000
001F80007E0000
001F80007E0000
001F00007C0000
001F00007C0000
003F0000FC0000
003F0000FC0000
003E0000F80000
007E0001F80000
007E0001F80000
007E0001F80000
007C0001F00000
00FC0003F00000
00FC0003F00000
00FC0003E00000
00F80003E00000
01F80007E00000
01F80007E00000
01F80007E00000
03F0000FE00000
03F0000FF00000
3FFFFFFFFF0000
3FFFFFFFFF0000
000000007F0000
000000001E0000
000000001E0000
000000001E0000
000000000C0000
000000000C0000
000000001C0000
000000001C0000
00000000180000
ENDCHAR

STARTCHAR afii10041
ENCODING 199
SWIDTH 779 0
DWIDTH 39 0
BBX 40 37 5 0
BITMAP
3FFF01FFFE
7FFF01FFFC
0FF0001FE0
07E0000FC0
07E0000F80
07C0001F80
07C0001F80
0FC0001F00
0FC0001F00
0F80003F00
0F80003E00
1F80003E00
1F00007E00
1F00007E00
1F0000FC00
1F0001FC00
1F8007FC00
1F800FFC00
0FE07EF800
0FFFF8F800
07FFF1F800
03FFC1F000
00FE01F000
000003F000
000003F000
000003E000
000003E000
000007E000
000007E000
000007C000
000007C000
00000FC000
00000F8000
00000F8000
00003FC000
0001FFFC00
0003FFFC00
ENDCHAR

STARTCHAR afii10042
ENCODING 200
SWIDTH 1141 0
DWIDTH 57 0
BBX 65 37 -2 0
BITMAP
000FFFC1FFF83FFE00
001FFF83FFF07FFE00
0003F8007F800FF000
0001F8003F0007E000
0001F0003E0007C000
0001F0003E0007C000
0003F0007E000FC000
0003E0007E000F8000
0003E0007C000F8000
0007E000FC000F8000
0007C000FC001F8000
0007C000F8001F0000
0007C000F8001F0000
000FC001F8003F0000
000F8001F8003F0000
000F8001F0003E0000
000F8001F0003E0000
001F8003F0007E0000
001F0003F0007C0000
001F0003E0007C0000
003F0007E0007C0000
003F0007E000FC0000
003E0007C000F80000
003E0007C000F80000
007E000FC001F80000
007C000FC001F00000
007C000F8001F00000
007C000F8001F00000
00FC001F8003F00000
00F8001F8003E00000
00F8001F0003E00000
01F8001F0003E00000
01F8003F0007E00000
01F0003E0007E00000
03F0003E0007E00000
3FFFFFFFFFFFFE0000
3FFFFFFFFFFFFC0000
ENDCHAR

STARTCHAR afii10043
ENCODING 201
SWIDTH 1132 0
DWIDTH 57 0
BBX 65 46 -2 -9
BITMAP
000FFF81FFF83FFE00
001FFF83FFF07FFE00
0003F8007F800FE000
0001F0003F0007C000
0001F0003E0007C000
0003F0007E0007C000
0003E0007E000F8000
0003E0007E000F8000
0003E0007C000F8000
0007E000FC001F8000
0007C000FC001F0000
0007C000F8001F0000
0007C000F8001F0000
000FC001F8003E0000
000F8001F8003E0000
000F8001F0003E0000
001F8001F0003E0000
001F8003F0007C0000
001F0003E0007C0000
001F0003E0007C0000
003F0007E000FC0000
003E0007E000F80000
003E0007C000F80000
003E0007C000F80000
007E000FC001F80000
007C000FC001F00000
007C000F8001F00000
007C000F8001F00000
00FC001F8003E00000
00F8001F0003E00000
00F8001F0003E00000
01F8003F0007E00000
01F8003F0007E00000
01F0003E0007E00000
03F0003E0007F00000
3FFFFFFFFFFFFF0000
3FFFFFFFFFFFFF0000
0000000000007E0000
0000000000003E0000
0000000000001E0000
0000000000001E0000
0000000000000C0000
0000000000000C0000
0000000000000C0000
0000000000001C0000
000000000000180000
ENDCHAR

STARTCHAR afii10044
ENCODING 202
SWIDTH 881 0
DWIDTH 44 0
BBX 41 37 2 0
BITMAP
03FFFFF00000
03FFFFF00000
07FFFF800000
07E03E000000
0FC03E000000
0F807E000000
0F007C000000
1E007C000000
1C007C000000
1800FC000000
3800F8000000
3000F8000000
0001F8000000
0001F0000000
0001F0000000
0001F0000000
0003FFFE0000
0003FFFFC000
0003E01FF000
0003E003F800
0007E000FC00
0007C000FC00
0007C0007E00
000FC0007E00
000F80007E00
000F80007E00
000F80007E00
001F80007E00
001F0000FE00
001F0000FC00
003F0001FC00
003F0001F800
003E0003F000
003E000FE000
007F003FC000
07FFFFFF0000
07FFFFF80000
ENDCHAR

STARTCHAR afii10045
ENCODING 203
SWIDTH 1083 0
DWIDTH 54 0
BBX 62 37 -2 0
BITMAP
003FFF80001FFFF0
003FFF80001FFFF0
0003F8000000FE00
0003F0000000FC00
0003F0000000FC00
0003E0000000FC00
0003E0000000F800
0007E0000000F800
0007C0000001F800
0007C0000001F000
0007C0000001F000
000FC0000001F000
000F80000003F000
000F80000003E000
001F80000003E000
001F80000003E000
001FFFF00007E000
001FFFFE0007C000
003F007F8007C000
003E001FC00FC000
003E0007E00FC000
003E0007E00F8000
007E0003F00F8000
007C0003F01F8000
007C0003F01F0000
007C0003F01F0000
00FC0003F01F0000
00F80003F03F0000
00F80007F03E0000
01F80007E03E0000
01F8000FE07E0000
01F0000FC07E0000
01F0001F807C0000
03F0003F007C0000
07F801FE00FE0000
3FFFFFF81FFFF000
7FFFFFC01FFFF000
ENDCHAR

STARTCHAR afii10046
ENCODING 204
SWIDTH 739 0
DWIDTH 37 0
BBX 39 37 -2 0
BITMAP
001FFFC000
003FFF8000
0001F80000
0001F80000
0001F00000
0001F00000
0003F00000
0003E00000
0003E00000
0007E00000
0007E00000
0007C00000
0007C00000
000FC00000
000FC00000
000F800000
000FFFF800
001FFFFF00
001F007FC0
001F000FE0
001F0003F0
003F0003F0
003E0001F8
003E0001F8
007E0001F8
007E0001F8
007C0001F8
007C0001F8
00FC0003F8
00FC0003F0
00F80007F0
00F80007E0
01F8000FC0
01F8003F80
03F800FF00
3FFFFFFC00
3FFFFFE000
ENDCHAR

STARTCHAR afii10047
ENCODING 205
SWIDTH 703 0
DWIDTH 35 0
BBX 36 39 0 -1
BITMAP
0000FFC000
000FFFF000
003FC1FC00
00FE007E00
00FC001F00
01F8001F80
01F0000F80
01E0000FC0
01E00007C0
01C00007C0
03C00007E0
03800007E0
03800007E0
03000007E0
00000007E0
00000007E0
00000007E0
00000007E0
0001FFFFE0
0001FFFFC0
0001FFFFC0
0000000FC0
0000001FC0
0000001F80
0000001F80
0000003F00
0000003F00
7000007E00
7000007E00
300000FC00
380001F800
380003F800
1C0007F000
1E000FE000
0F001FC000
07C07F0000
03FFFE0000
00FFF80000
001FC00000
ENDCHAR

STARTCHAR afii10048
ENCODING 206
SWIDTH 1133 0
DWIDTH 57 0
BBX 60 39 -2 -1
BITMAP
0000000000FF8000
003FFFC003FFF000
003FFFC01FC1F800
0003FC003E007E00
0001F800FC001F00
0001F001F8001F00
0001F003F0000F80
0003F007E0000F80
0003E00FC00007C0
0003E00FC00007C0
0007E01F800007E0
0007E01F800007E0
0007C03F000007E0
0007C03F000007E0
000FC07E000007E0
000FC07E000007E0
000F80FE000007E0
000F80FE000007E0
001FFFFC00000FE0
001FFFFC00000FC0
001FFFFC00000FC0
001F01FC00000FC0
003F01F800001FC0
003E01F800001F80
003E01F800001F80
007E01F800003F80
007E01F800003F00
007C01F800003F00
007C00F800007E00
00FC00F800007C00
00FC00F80000FC00
00F800780001F800
00F8007C0003F000
01F8003C0007E000
01F8003E000FC000
03F8001F001F0000
3FFFC007C0FE0000
3FFFC003FFF80000
000000007FC00000
ENDCHAR

STARTCHAR afii10049
ENCODING 207
SWIDTH 746 0
DWIDTH 37 0
BBX 47 37 -4 0
BITMAP
000003FFFFFC
00001FFFFFF8
00003FC00F80
00007F001F80
0000FC001F00
0001F8001F00
0001F8003F00
0003F0003F00
0003F0003E00
0003F0003E00
0003E0007E00
0003E0007C00
0003E0007C00
0003E000FC00
0003F000FC00
0001F000F800
0000F800F800
00007E01F800
00001FFFF800
00003FFFF000
0000FE01F000
0001F803F000
0003F003E000
0003F003E000
0007E003E000
000FC007E000
000FC007C000
001F8007C000
003F8007C000
003F000FC000
007E000F8000
00FE000F8000
00FC001F8000
01F8001F8000
07F8003F8000
3FF003FFF800
3FE003FFF800
ENDCHAR

STARTCHAR afii10065
ENCODING 208
SWIDTH 604 0
DWIDTH 30 0
BBX 31 29 0 -1
BITMAP
000F8000
003FE1E0
007FF3E0
00FC7BE0
01F01BE0
03E01FC0
07E00FC0
07C00FC0
0F8007C0
1F800780
1F000F80
1F000F80
3F000F00
3E001F00
3E001F00
3E001F00
7E001E00
7C003E00
7C003E00
7C003E00
7C007C18
7C007C38
7C00FC30
3C03F860
3E0778E0
3F1E79C0
1FFC7F80
0FF87F00
03E03C00
ENDCHAR

STARTCHAR afii10066
ENCODING 209
SWIDTH 551 0
DWIDTH 28 0
BBX 33 39 1 -1
BITMAP
0000000700
0000001E00
0001FFFC00
0007FFF800
000FFFF000
003FFFC000
007C000000
0070000000
00E0000000
01C0000000
0180000000
0387F00000
031FFC0000
073C1F0000
06700F0000
06E0078000
0DC0078000
0FC007C000
0F8007C000
1F8007C000
1F0007C000
1F0007C000
1E0007C000
3E0007C000
3E000FC000
3E000F8000
3C000F8000
3C000F8000
3C001F0000
3C001F0000
3C001F0000
3C003E0000
1C003C0000
1E007C0000
1E00F80000
0F01F00000
0783E00000
03FF800000
00FE000000
ENDCHAR

STARTCHAR afii10067
ENCODING 210
SWIDTH 488 0
DWIDTH 24 0
BBX 24 29 1 -1
BITMAP
000FE0
003FF8
00787C
01F03E
03E03E
03C03E
07C03E
0F803C
0F807C
1F00F8
1F01F0
3F03C0
3E0F80
3E7F00
3FFFC0
7F83F0
7C01F0
7C00F8
7C00F8
7C00F8
7C00F8
7C00F8
3C00F0
3C01F0
3E03E0
1E07E0
0F0FC0
07FF00
01FC00
ENDCHAR

STARTCHAR afii10068
ENCODING 211
SWIDTH 439 0
DWIDTH 22 0
BBX 23 28 0 -1
BITMAP
001FE0
007FF0
01F1F8
03807C
07007C
00007C
00007C
00007C
0000F8
0001F0
0003E0
0007C0
001F00
007C00
01F000
07C000
0F8000
1F0000
3E0000
3C0000
7C0000
7C0000
7C00E0
7E01C0
3F0780
3FFF00
0FFC00
07E000
ENDCHAR

STARTCHAR afii10069
ENCODING 212
SWIDTH 542 0
DWIDTH 27 0
BBX 27 41 1 -1
BITMAP
00100000
001F8000
001FE000
0003F800
00007C00
00003E00
00001F00
00000F00
00000F80
00000780
00000780
000007C0
001F87C0
007FE7C0
01F8F7C0
03E037C0
03C01FC0
07801FC0
0F800FC0
0F000FC0
1F000FC0
1F000FC0
3E000FC0
3E000F80
3E000F80
3C000F80
7C000F80
7C001F00
7C001F00
7C001F00
7C003E00
7C003E00
7C003C00
3C007C00
3C007800
3C00F800
1E01F000
1F03E000
0F87C000
03FF8000
00FC0000
ENDCHAR

STARTCHAR afii10070
ENCODING 213
SWIDTH 458 0
DWIDTH 23 0
BBX 24 29 0 -1
BITMAP
0007F0
001FF8
003C7C
00F03C
01E03E
01C03E
03C03E
07803E
07803C
0F807C
0F00F8
1F00F8
1F01F0
1F07C0
3E1F80
3E7E00
3FF800
3FE000
3F0000
3E0000
3E0000
3E0000
3E0038
1F0070
1F00E0
0F83C0
0FFF80
03FE00
01F800
ENDCHAR

STARTCHAR afii10072
ENCODING 214
SWIDTH 975 0
DWIDTH 49 0
BBX 52 29 -1 -1
BITMAP
003F0000003E00
00FFC00F00FF80
01FFE00F01C7C0
03C3E01E0387C0
0701F01E0707E0
0E01F01E0F07E0
0C00F01C0E03C0
0000F03C1E0180
0000F03C3C0000
0000F0383C0000
0000F0783C0000
0000F078780000
0001F078780000
0001FFFFF80000
0001FFFFF80000
0001E0F0F00000
0001E0E0F00000
0003C1E0F00000
0003C1E0F00000
0003C1C0F00000
180783C0F00000
3C0783C0F80300
3C0F03C0F80700
7E0F03807C0E00
7E1E07807E3C00
3E1C07803FF800
3F7807001FF000
1FF00F000FC000
07E00000000000
ENDCHAR

STARTCHAR afii10073
ENCODING 215
SWIDTH 490 0
DWIDTH 24 0
BBX 26 29 -1 -1
BITMAP
001FF000
00FFFC00
01F87E00
01E01F00
01C00F00
01C00F00
03800F00
03000F00
03000F00
00001E00
00003E00
00003C00
0000F000
003FC000
003FC000
003FF000
0001F800
0000FC00
00007C00
3C007C00
3E007C00
7E007C00
7E007C00
7C00F800
7C00F800
3C01F000
1E07E000
0FFF8000
03FE0000
ENDCHAR

STARTCHAR afii10074
ENCODING 216
SWIDTH 629 0
DWIDTH 31 0
BBX 31 28 2 -1
BITMAP
01F00000
1FF001F0
3FF001F0
03F001E0
03E003E0
03E003E0
03E003C0
03C007C0
07C007C0
07C00780
07800F80
0F800F80
0F800F00
0F001F00
1F001F00
1F001E00
1E003E00
3E003E00
3E007C00
3C00FC00
3C01FC38
7C03FC30
7C07F860
7C1CF8C0
7E38F9C0
3FF0FF80
3FE07F00
0F803C00
ENDCHAR

STARTCHAR afii10075
ENCODING 217
SWIDTH 635 0
DWIDTH 32 0
BBX 31 38 2 -1
BITMAP
000380C0
0007C180
0007E180
0003FF00
0001FE00
0000F800
00000000
00000000
00000000
00000000
1FF001F0
1FF001F0
3FF001F0
03E001E0
03E003E0
03E003E0
03E003C0
07C007C0
07C007C0
07C00780
07800F80
0F800F80
0F800F00
0F001F00
1F001F00
1F001E00
1E003E00
3E003E00
3E007C00
3C00FC00
3C01FC38
7C03FC30
7C0FF860
7C1CF8C0
7E78F9C0
3FF0FF80
3FE07F00
0F803C00
ENDCHAR

STARTCHAR afii10076
ENCODING 218
SWIDTH 594 0
DWIDTH 30 0
BBX 33 28 0 0
BITMAP
03FC001C00
0FFC007E00
0FFC007E00
00F800FE00
00F801FE00
00F8039C00
00F0030000
01F0060000
01F0060000
01F00C0000
03E0180000
03E0380000
03E0F00000
03FFC00000
07FFC00000
07C3E00000
07C1F00000
0F81F00000
0F80F00000
0F80F80000
0F00F80000
1F00780000
1F007C0000
1F007C0000
3E007C0000
3E003E0000
3E003FC000
3C003FC000
ENDCHAR

STARTCHAR afii10077
ENCODING 219
SWIDTH 646 0
DWIDTH 32 0
BBX 35 28 -2 -1
BITMAP
001FFFFF00
001FFFFF00
0003F01F00
0003E01F00
0001C01E00
0003803E00
0003803E00
0003003C00
0003007C00
0007007C00
0006007C00
0006007800
000600F800
000C00F800
000C00F000
000C01F000
001801F000
001801F000
003801E000
003003E0C0
003003E180
006007C380
38E007C300
7CC007C600
7FC007CE00
7F8007FC00
3F0003F000
1E0001E000
ENDCHAR

STARTCHAR afii10078
ENCODING 220
SWIDTH 854 0
DWIDTH 43 0
BBX 45 28 -2 -1
BITMAP
003FF8000FC0
003FF8001FC0
000F78001FC0
000778003780
000778007780
000778006780
00067800CF80
00067801CF00
000678018F00
000C78031F00
000C78071E00
000C78061E00
001C780E3E00
0018780C3E00
00187C183C00
00187C383C00
00307C307C00
00307C607C00
00303CE07800
00603CC0F870
00603D80F860
00603F80F0E0
3CC03F00F1C0
3FC03F01F180
7F803E01F300
7F803C01FE00
3F003C00FC00
1E000000F000
ENDCHAR

STARTCHAR afii10079
ENCODING 221
SWIDTH 644 0
DWIDTH 32 0
BBX 34 28 -1 -1
BITMAP
07FC003E00
07FC003C00
00FC007C00
007C007C00
0078007800
00F800F800
00F800F800
00F000F800
00F001F000
01F001F000
01F001F000
01E001E000
03FFFFE000
03FFFFE000
03C003E000
07C007C000
07C007C000
07C007C000
0780078000
0F800F8000
0F800F8700
0F000F8E00
1F000F0C00
1F001F1C00
1F001F3800
3E001FF000
3E000FC000
0000078000
ENDCHAR

STARTCHAR afii10080
ENCODING 222
SWIDTH 531 0
DWIDTH 27 0
BBX 26 29 1 -1
BITMAP
000FE000
003FF800
00FC7C00
01F01E00
03E01E00
07C00F00
07C00F00
0F800F80
1F800F80
1F000F80
1F000F80
3E000F80
3E000F80
3E000F80
7E001F80
7E001F00
7C001F00
7C001F00
7C003F00
7C003E00
7C003E00
7C007C00
3C007800
3C00F800
1E01F000
1E03E000
0F8FC000
07FF0000
01FC0000
ENDCHAR

STARTCHAR afii10081
ENCODING 223
SWIDTH 635 0
DWIDTH 32 0
BBX 32 29 0 -1
BITMAP
0FFC0FC0
0FF81FE0
0FF87FE0
00F8F1F0
00F9C1F0
00F381F0
00F701F0
01FE01E0
01FC01E0
01F801E0
01F003E0
03E003C0
03E003C0
03E007C0
03C007C0
07C00780
07C00F80
07800F80
0F800F00
0F801F00
0F801F0E
0F001E0C
1F001E18
1F003E38
1E003E70
3E003EE0
3E003FC0
3E001F80
00000F00
ENDCHAR

STARTCHAR afii10082
ENCODING 224
SWIDTH 583 0
DWIDTH 29 0
BBX 35 37 -6 -9
BITMAP
003FE0F800
003FE3FE00
003FE7FF00
0003CE1F80
0003DC0F80
0003F00780
0007E007C0
0007C007C0
00078007C0
00078007C0
000F8007C0
000F8007C0
000F0007C0
001F000FC0
001F000F80
001E000F80
001E001F80
003E001F00
003E001F00
003C003E00
007C003E00
007E007C00
007E00FC00
007F00F800
00FB01F000
00FBC7E000
00F1FFC000
00F0FF8000
01F03E0000
01F0000000
01E0000000
03E0000000
03E0000000
03E0000000
07E0000000
3FFF000000
7FFE000000
ENDCHAR

STARTCHAR afii10083
ENCODING 225
SWIDTH 458 0
DWIDTH 23 0
BBX 26 29 -1 -1
BITMAP
0007F000
001FFC00
003E3E00
00F81F00
01F01F00
01E01F00
03E01F00
07C01F00
07C00600
0F800000
0F800000
1F000000
1F000000
1F000000
1F000000
3F000000
3E000000
3E000000
3E000000
3E000000
3E000000
3E000000
3F001C00
1F007800
1F80F000
0FC3E000
0FFF8000
07FF0000
01F80000
ENDCHAR

STARTCHAR afii10084
ENCODING 226
SWIDTH 906 0
DWIDTH 45 0
BBX 46 29 0 -1
BITMAP
0FF80F803E00
0FF83FC0FF00
1FF87FC1FF80
00F9E3E38F80
00F3C3E70780
00F703EE0780
01FE03FC0F80
01FC03F80F80
01F807F00F80
01F007E00F00
03E007C01F00
03E007801F00
03C00F801F00
07C00F803E00
07C00F803E00
07C01F003E00
07801F007C00
0F801F007C00
0F801E007C00
0F003E00F800
1F003E00F830
1F003E00F870
1F003C00F060
1E007C00F0C0
3E007C01F1C0
3E007C01F380
3C00F800FF00
7C00F800FE00
000000007800
ENDCHAR

STARTCHAR afii10085
ENCODING 227
SWIDTH 510 0
DWIDTH 26 0
BBX 32 37 -4 -9
BITMAP
001E0070
003F00F8
007F00FC
007F00FC
00EF807C
00CF803C
00C7803C
0187801C
0187C01C
0007C018
0007C018
0007C038
0007C030
0007C070
0003C060
0003C0E0
0003C0C0
0003C1C0
0003E380
0003E300
0003E700
0003EE00
0003EC00
0003F800
0001F800
0001F000
0001E000
0001C000
00018000
00038000
00070000
1C0E0000
3E1C0000
3F780000
3FF00000
3FC00000
1F000000
ENDCHAR

STARTCHAR afii10086
ENCODING 228
SWIDTH 759 0
DWIDTH 38 0
BBX 40 47 0 -9
BITMAP
00000007F0
0000001FFC
0000003CFC
000000787C
000000F03C
000000F038
000001E000
000001E000
000003E000
000003C000
000F83C000
003FC7C7C0
007FE79FF0
00F877BFF0
01F03F70F8
03E01FE078
03C01F807C
07C01F007C
0F801F007C
0F801E007C
0F003E007C
1F003E007C
1F003C0078
1E003C00F8
3E007C00F8
3E007800F8
3E007800F0
3C00F801F0
7C00F001F0
7C00F003E0
7C01F003E0
7C01F007C0
7C01F007C0
3C03F00F80
3C05D81F00
3E1FDC3F00
1FFBCFFE00
0FF787F800
07C783E000
0007800000
000F000000
3C0F000000
7C1E000000
7E1E000000
7F3C000000
3FF8000000
1FE0000000
ENDCHAR

STARTCHAR afii10087
ENCODING 229
SWIDTH 573 0
DWIDTH 29 0
BBX 32 29 -2 -1
BITMAP
007C007C
00FE00FE
01FF01FE
019F03FE
038F873C
030F8600
070F8C00
0607DC00
0007D800
0007F000
0003F000
0003E000
0003E000
0001E000
0001F000
0003F000
0007F000
0006F000
000EF800
001CF800
00187800
00387C1C
00707C18
38607C38
7FC03E30
7FC03E60
7F803FE0
3F001FC0
1C000F00
ENDCHAR

STARTCHAR afii10088
ENCODING 230
SWIDTH 635 0
DWIDTH 32 0
BBX 30 35 2 -8
BITMAP
03F00000
1FF001F0
3FF001F0
03F001E0
03E003E0
03E003E0
03E003C0
03C007C0
07C007C0
07C00780
07800F80
0F800F80
0F800F00
0F001F00
1F001F00
1F001E00
1E003E00
3E003E00
3E007C00
3C00FC00
3C01FC00
7C03FC30
7C0FF870
7C1CF8E0
7E78F9A0
3FF0FF60
3FE07E60
0F803CC0
000001C0
000001C0
000003C0
000003C0
00000780
00003F00
00003C00
ENDCHAR

STARTCHAR afii10089
ENCODING 231
SWIDTH 602 0
DWIDTH 30 0
BBX 30 28 1 -1
BITMAP
3FE003C0
7FE007C0
0FE007C0
07C007C0
07C00780
07C00F80
0F800F80
0F800F00
0F801F00
0F001F00
1F001F00
1F003E00
1F00FE00
1F83FE00
0FFFBC00
07FE7C00
01F07C00
00007C00
00007800
0000F830
0000F860
0000F0E0
0001F0C0
0001F180
0001F700
0001FF00
0000FE00
00007800
ENDCHAR

STARTCHAR afii10090
ENCODING 232
SWIDTH 896 0
DWIDTH 45 0
BBX 44 28 2 -1
BITMAP
00F800000000
1FF003C00F80
1FF007C00F00
03F007C01F00
01E007801F00
03E00F801E00
03E00F803E00
03E00F003E00
03C00F003E00
07C01F007C00
07C01F007C00
07801E007C00
0F803E007800
0F803E00F800
0F003C00F800
1F007C00F000
1F007C01F000
1E007803F000
3E00F807E000
3E01F807E000
3C03F00FE1C0
7C07F01BC180
7C0FF033C300
7C1DF0E7C700
7C79F1C7CE00
7FF0FF87FC00
3FC0FF03F800
1F007C01E000
ENDCHAR

STARTCHAR afii10091
ENCODING 233
SWIDTH 895 0
DWIDTH 45 0
BBX 43 35 2 -8
BITMAP
00F800000000
1FF003E00780
1FF003C00F80
03F007C00F80
01E007C00F00
03E007801F00
03E00F801F00
03E00F801E00
03C00F003E00
07C01F003E00
07C01F003C00
07801E007C00
0F803E007C00
0F803E007800
0F003C00F800
1F007C00F800
1F007C00F800
1E007C01F000
3E00F803F000
3E01F807F000
3C03F80FE080
7C07F01FE180
7C0FF03BE380
7C1DF073C780
7C79F1E3CF00
7FF0FFC3FD00
3FC0FF03FB00
1F007C01E700
000000000F00
000000000E00
000000000E00
000000001E00
000000003C00
00000000F800
00000000E000
ENDCHAR

STARTCHAR afii10092
ENCODING 234
SWIDTH 573 0
DWIDTH 29 0
BBX 28 28 0 -1
BITMAP
03C1E000
0FFFC000
1FFEC000
1FF9C000
39E38000
30078000
00070000
000F0000
001E0000
003C0000
007DFC00
00F7FF00
00FF1F80
01FC0F80
03F807C0
03F007C0
03E007C0
07E007C0
07C007C0
07C007C0
07C00F80
07C00F80
07C01F00
03C03F00
03E07E00
01F1FC00
00FFF000
003FC000
ENDCHAR

STARTCHAR afii10093
ENCODING 235
SWIDTH 798 0
DWIDTH 40 0
BBX 38 28 2 -1
BITMAP
1FF0003FF0
3FE0003FE0
07E00007E0
03E00003E0
03E00003C0
03C00007C0
07C00007C0
07C0000780
0780000F80
0780000F80
0F8FC00F80
0FBFF00F00
0FF1F81F00
1FC0F81F00
1F807C1E00
1F007C3E00
3F007C3E00
3E007C3C00
3E007C7C00
3C007C7C38
3C00FC7C30
3C00F87870
3C01F8F8E0
3C03F0F8C0
1E07E0F980
0F0FC0FF80
07FF007F00
03FC003C00
ENDCHAR

STARTCHAR afii10094
ENCODING 236
SWIDTH 521 0
DWIDTH 26 0
BBX 24 28 1 -1
BITMAP
1FF800
1FF000
03F000
01F000
03E000
03E000
03C000
03C000
07C000
078000
0F8FE0
0FBFF0
0F70F8
1FC07C
1F803E
1F003E
3F003E
3E003E
3E003E
3E007E
3C007C
3C007C
3C00F8
3E01F8
1E03F0
1F0FC0
07FF80
01FC00
ENDCHAR

STARTCHAR afii10095
ENCODING 237
SWIDTH 448 0
DWIDTH 22 0
BBX 24 28 -1 -1
BITMAP
001F80
007FE0
01FFF8
03C0F8
07007C
06003C
0C003E
00003E
00003E
00003E
00003E
00003E
003FFE
003FFE
00007C
00007C
00007C
0000F8
0000F8
0001F0
3C01F0
7C03E0
7C03C0
7C0780
7E1F00
3FFE00
1FF800
03C000
ENDCHAR

STARTCHAR afii10096
ENCODING 238
SWIDTH 805 0
DWIDTH 40 0
BBX 40 29 0 -1
BITMAP
0FFC003F80
0FFC00FFE0
03F803F1F0
00F807C078
00F80F8078
00F81F003C
00F01F003C
01F03E003E
01F03E003E
01E07C003E
03E07C003E
03E0FC003E
03E0F8003E
03FFF8003E
07FFF8007E
07C1F8007C
0781F0007C
0F81F0007C
0F81F000FC
0F81F000F8
1F01F000F8
1F01F001F0
1F00F001E0
1E00F003E0
3E00F807C0
3E00780F80
3C003E1F00
7C001FFC00
000003F000
ENDCHAR

STARTCHAR afii10097
ENCODING 239
SWIDTH 592 0
DWIDTH 30 0
BBX 33 28 -3 -1
BITMAP
0001FFFC00
0007FFFC00
001FC07C00
003F007C00
003E007800
007E00F800
007C00F800
007C00F000
007C01F000
007C01F000
003C01E000
003E01E000
001F83E000
0007FFE000
0007FFC000
001F07C000
003E07C000
007C078000
007C078000
00F80F8300
01F00F8600
01F00F0E00
03E01F0C00
07C01F1800
0FC01F3800
7F801FF000
7F800FE000
0000078000
ENDCHAR

STARTCHAR afii61352
ENCODING 240
SWIDTH 1000 0
DWIDTH 50 0
BBX 56 39 -3 -1
BITMAP
00000000007800
0007F80001FE00
000FF80003FE00
0003FC0007FF00
0000FC0007FE00
00007C000E7E00
0000FE000C3C00
0000FE001C0000
0000FE001C0000
0001FE00180000
0001FF00380000
0001DF003807C0
00019F00301FF0
00039F00307838
00039F8070F03C
00030F8070F01C
00030F8061E01C
00070FC063E01C
000707C0E3C03C
000607C0E3C03C
000E07C0C3C03C
000E07E1C7803C
000E03E1C78078
000C03E1878078
001C03F18780F0
001C03F38380F0
001801F38381E0
001801F301C3C0
003801FF00FF80
003800FF003E00
003000FF000000
007000FE000000
007000FE000000
3C60007E000000
3FE0007E000000
7FC0007C07FE00
7FC0007C07FE00
3F80003C0FFC00
3F000000000000
ENDCHAR

STARTCHAR afii10071
ENCODING 241
SWIDTH 462 0
DWIDTH 23 0
BBX 27 38 0 -1
BITMAP
00380700
007C0F80
007C0F80
007C0F80
00380700
00000000
00000000
00000000
00000000
0007F000
001FF800
007C7C00
00F03C00
01E03E00
03C03E00
07C03E00
07803E00
0F803C00
1F007C00
1F00F800
1F01F800
3E03E000
3E07C000
3E1F8000
7E7E0000
7FF80000
7FC00000
7E000000
7C000000
7C000000
7C000000
3C003800
3E007000
3F01E000
1F87C000
0FFF8000
07FE0000
01F80000
ENDCHAR

STARTCHAR afii10099
ENCODING 242
SWIDTH 563 0
DWIDTH 28 0
BBX 29 47 0 -8
BITMAP
001F8000
00FF8000
01FF8000
001F0000
001F0000
001F0000
03FFFFC0
03FFFFC0
003E0000
003E0000
003C0000
007C07C0
007C1FE0
00787FF0
00F8F3F0
00F9C1F0
00FB81F0
00F601F0
01FC01F0
01F801F0
01F003F0
03E003E0
03E003E0
03C003E0
03C007C0
07C007C0
07C007C0
07800FC0
0F800F80
0F800F80
0F001F00
0F001F00
1F001F00
1F003E00
1E003E00
3E003C00
3E007C00
3E007800
3C00F800
0000F000
0001E000
0003E000
0007C000
000F8000
001E0000
00FC0000
00F00000
ENDCHAR

STARTCHAR afii10100
ENCODING 243
SWIDTH 510 0
DWIDTH 26 0
BBX 32 38 -3 0
BITMAP
00000070
000000F8
000003F0
000007F0
00000FC0
00003E00
00007000
00000000
00000000
00000000
00000000
00FFFFFE
00FFFFFC
001FC0FC
000F807C
000F8038
000F0038
001F0038
001F0030
001F0030
003E0000
003E0000
003E0000
003C0000
007C0000
007C0000
007C0000
00F80000
00F80000
00F80000
00F00000
01F00000
01F00000
01F00000
03E00000
07F00000
3FFE0000
3FFE0000
ENDCHAR

STARTCHAR afii10101
ENCODING 244
SWIDTH 469 0
DWIDTH 23 0
BBX 25 29 0 -1
BITMAP
0007F000
001FFC00
003C3E00
00F83E00
00F03F00
01E03F00
03C01F00
07C01E00
07C00E00
0F800000
0F800000
1F000000
1F000000
1FFF0000
1FFE0000
3F000000
3E000000
3E000000
3E000000
3E000000
3E000000
3E000000
3E003C00
1F007800
1F00F000
1FC3E000
0FFF8000
07FF0000
01F80000
ENDCHAR

STARTCHAR afii10102
ENCODING 245
SWIDTH 448 0
DWIDTH 22 0
BBX 25 29 -1 -1
BITMAP
000FC000
007FF800
00F07C00
01E07E00
01C03E00
03C03E00
03C01E00
03E01C00
03E00000
03F00000
03F80000
01FC0000
00FF0000
007F8000
003FC000
001FE000
000FF000
0003F000
0001F800
0000F800
0800F800
3C00F800
3E00F000
3E00F000
3E00F000
3F01E000
1F87C000
0FFF8000
03FC0000
ENDCHAR

STARTCHAR afii10103
ENCODING 246
SWIDTH 344 0
DWIDTH 17 0
BBX 16 39 2 -1
BITMAP
0078
00FC
00FC
00FC
00FC
0078
0000
0000
0000
0000
0000
3FF0
3FF0
0FF0
03E0
03E0
03E0
03E0
03C0
07C0
07C0
0780
0780
0F80
0F80
0F00
0F00
1F00
1E00
1E00
3E00
3E18
3C38
3C30
7C60
7CE0
7FC0
3F00
1E00
ENDCHAR

STARTCHAR afii10104
ENCODING 247
SWIDTH 344 0
DWIDTH 17 0
BBX 18 37 2 -1
BITMAP
1C0E00
3E1F00
3E1F00
3E1F00
1C0E00
000000
000000
000000
000000
0FF000
3FF000
3FF000
03E000
03E000
03E000
03E000
03C000
07C000
07C000
078000
078000
0F8000
0F8000
0F0000
0F0000
1F0000
1E0000
1E0000
3E0000
3E1800
3C3800
3C3000
7C6000
7CC000
7FC000
3F0000
1E0000
ENDCHAR

STARTCHAR afii10105
ENCODING 248
SWIDTH 344 0
DWIDTH 17 0
BBX 26 47 -8 -9
BITMAP
00001E00
00003F00
00003F00
00003F00
00003F00
00001E00
00000000
00000000
00000000
00000000
00000000
0007FE00
0007FE00
0000FC00
00007C00
00007C00
00007C00
00007800
00007800
0000F800
0000F800
0000F000
0000F000
0001F000
0001F000
0001E000
0001E000
0003E000
0003E000
0003E000
0003C000
0007C000
0007C000
0007C000
00078000
00078000
000F8000
000F0000
000F0000
000F0000
001E0000
3C1E0000
3E1C0000
3F3C0000
3FF80000
1FF00000
07800000
ENDCHAR

STARTCHAR afii10106
ENCODING 249
SWIDTH 850 0
DWIDTH 43 0
BBX 46 28 -4 -1
BITMAP
000FFFFF8000
000FFFFF8000
0003F80F8000
0001F01F0000
0001E01F0000
0001C01F0000
0001C03E0000
0001803E0000
0001803E0000
0003003C0000
0003007C7F00
0003007DFF80
0006007F87C0
000600FE03E0
000600FC01F0
000C00F801F0
000C00F801F0
000C01F001F0
001801F001F0
001801F003F0
003801E003F0
003001E003E0
1C7001E007E0
3EE001F00FC0
3FC000F01F80
3FC000F87F00
3F80003FFC00
1E00000FE000
ENDCHAR

STARTCHAR afii10107
ENCODING 250
SWIDTH 845 0
DWIDTH 42 0
BBX 42 28 -1 -1
BITMAP
07FC003C0000
07FC007C0000
00FC007C0000
007800780000
00F800F80000
00F800F80000
00F800F00000
00F001F00000
01F001F00000
01F001F00000
01E003E3F800
03E003EFFE00
03FFFFFE3F00
03FFFFF81F00
03C007E00F80
07C007E00F80
07C007C00F80
07800F800F80
0F800F800F80
0F800F800F80
0F000F001F00
1F000F001F00
1F000F003E00
1F000F807E00
1E000780FC00
3E0003C3F800
3E0001FFE000
0000007F8000
ENDCHAR

STARTCHAR afii10108
ENCODING 251
SWIDTH 635 0
DWIDTH 32 0
BBX 32 40 0 -1
BITMAP
001F8000
01FF0000
01FF0000
001F0000
001F0000
001E0000
03FFFFC0
03FFFFC0
003E0000
003C0000
007C0000
007C0F80
00783FE0
00787FE0
00F8F3F0
00F9C1F0
00F301F0
01F601F0
01FC01F0
01F801E0
01F003E0
03E003E0
03C003C0
03C007C0
07C007C0
07C00780
07800F80
07800F80
0F800F80
0F801F00
0F001F00
1F001F0E
1F001E0C
1E003E18
1E003E38
3E003C70
3E003CE0
3C003FC0
7C003F80
00000F00
ENDCHAR

STARTCHAR afii10109
ENCODING 252
SWIDTH 594 0
DWIDTH 30 0
BBX 33 38 0 0
BITMAP
000001E000
000007E000
00000FE000
00001FC000
00003E0000
0000F00000
0001800000
0000000000
0000000000
0000000000
03FC001C00
0FFC007E00
0FFC007E00
00F800FE00
00F801FE00
00F8039C00
00F0030000
01F0060000
01F0060000
01F00C0000
03E0180000
03E0380000
03E0F00000
03FFC00000
07FFC00000
07C3E00000
07C1F00000
0F81F00000
0F80F00000
0F80F80000
0F00F80000
1F00780000
1F007C0000
1F007C0000
3E007C0000
3E003E0000
3E003FC000
3C003FC000
ENDCHAR

STARTCHAR section
ENCODING 253
SWIDTH 489 0
DWIDTH 24 0
BBX 28 47 -1 -9
BITMAP
0000FE00
0007FF80
000F0FC0
001E07C0
001C07E0
003C03E0
003C03C0
003C0180
003E0000
003E0000
003F0000
001F0000
001F8000
000FC000
001FC000
007FE000
00E3F000
01C3F000
03C1F800
0380FC00
0780FC00
07807E00
07C03E00
07C03E00
07C01E00
07E01E00
03F01E00
03F01E00
01F83C00
00FC7800
00FCF000
007FE000
003F8000
001F0000
001F8000
000F8000
0007C000
0007C000
0003C000
1803C000
3C03C000
3C03C000
3E038000
3E078000
3F0F0000
1FFC0000
07F00000
ENDCHAR

STARTCHAR afii10110
ENCODING 254
SWIDTH 510 0
DWIDTH 26 0
BBX 32 47 -4 -9
BITMAP
00007018
0000F818
0000FC30
00007FE0
00003FC0
00001F00
00000000
00000000
00000000
00000000
001E0070
003F00F8
007F00FC
007F00FC
00EF807C
00CF803C
00C7803C
0187801C
0187C01C
0007C018
0007C018
0007C038
0007C030
0007C070
0003C060
0003C0E0
0003C0C0
0003C1C0
0003E380
0003E300
0003E700
0003EE00
0003EC00
0003F800
0001F800
0001F000
0001E000
0001C000
00018000
00038000
00070000
1C0E0000
3E1C0000
3F780000
3FF00000
3FC00000
1F000000
ENDCHAR

STARTCHAR afii10193
ENCODING 255
SWIDTH 635 0
DWIDTH 32 0
BBX 31 36 2 -9
BITMAP
1FF001F0
3FF001F0
07F001E0
03E003E0
03E003E0
03E003C0
03C007C0
07C007C0
07C007C0
07800F80
0F800F80
0F800F80
0F801F00
0F001F00
1F001F00
1F001E00
1E003E00
3E003E00
3E007C00
3C00FC00
3C01FC30
7C077870
7C0EF860
7C1CF8C0
7E78F9C0
3FF0FF80
3FC07F00
0F803C00
07000000
0E000000
0E000000
0F000000
0F000000
1E000000
3C000000
10000000
ENDCHAR
ENDFONT
